<svg width="1568" height="975" viewBox="0 0 1568 975" fill="none" xmlns="http://www.w3.org/2000/svg">
<rect width="1440" height="840" fill="#FFF9F7"/>
<rect width="1440" height="840" fill="#FFF9F7"/>
<rect x="60" y="62" width="1320" height="718" rx="20" fill="url(#paint0_radial)"/>
<path d="M3.17586e-05 379.699C16.7741 375.029 34.2501 372.601 51.978 372.601C103.08 372.601 152.089 392.773 188.224 428.68C224.359 464.586 244.659 513.286 244.659 564.065L244.659 786.198L125.577 786.198L125.576 564.065C125.576 544.679 117.826 526.087 104.031 512.379C90.2356 498.67 71.5251 490.969 52.0155 490.969C32.5059 490.969 13.7954 498.67 3.96982e-05 512.379L3.17586e-05 379.699Z" fill="#3C5C56"/>
<path d="M391.61 422.385L391.61 214.385C391.61 163.681 411.965 115.054 448.196 79.2013C484.427 43.3483 533.567 23.2063 584.805 23.2063C636.044 23.2063 685.183 43.3483 721.414 79.2013C757.646 115.054 778 163.681 778 214.385L778 603L658.6 603L658.6 214.385C658.6 195.028 650.829 176.463 636.997 162.775C623.165 149.087 604.404 141.398 584.843 141.398C565.281 141.398 546.521 149.087 532.689 162.775C518.856 176.463 511.086 195.028 511.086 214.385L511.086 422.385L391.61 422.385Z" fill="#3C5C56"/>
<path d="M510.816 572.989L510.816 782.357C510.816 833.395 490.57 882.341 454.531 918.43C418.493 954.519 369.614 974.793 318.649 974.793C267.683 974.793 218.804 954.519 182.766 918.43C146.728 882.341 126.481 833.395 126.481 782.357L245.246 782.357C245.246 801.842 252.976 820.529 266.734 834.307C280.493 848.084 299.154 855.825 318.611 855.825C338.069 855.825 356.729 848.085 370.488 834.307C384.247 820.529 391.976 801.842 391.976 782.357L391.976 572.989L510.816 572.989Z" fill="#3C5C56"/>
<rect x="391.61" y="282.17" width="119.205" height="415.163" fill="#3C5C56"/>
<path d="M1568 286.962C1568 336.302 1548.25 383.622 1513.08 418.511C1477.92 453.4 1430.23 473 1380.5 473C1330.77 473 1283.08 453.4 1247.92 418.511C1212.75 383.622 1193 336.302 1193 286.962V62H1308.88L1308.88 286.962C1308.88 305.799 1316.42 323.864 1329.85 337.184C1343.27 350.504 1361.48 357.987 1380.46 357.987C1399.45 357.987 1417.66 350.504 1431.08 337.184C1444.5 323.864 1452.05 305.799 1452.05 286.962L1568 286.962Z" fill="#FFA077"/>
<path d="M691.373 237.051H679.908C679.788 237.051 679.67 237.075 679.56 237.121C679.449 237.167 679.349 237.234 679.265 237.319C679.181 237.404 679.114 237.505 679.068 237.615C679.023 237.726 679 237.844 679 237.964L679.019 245.28C679.019 245.454 679.07 245.625 679.165 245.772C679.259 245.918 679.394 246.035 679.553 246.107C679.712 246.179 679.889 246.204 680.062 246.178C680.234 246.153 680.396 246.079 680.528 245.964L685.012 242.057C685.186 241.904 685.41 241.82 685.641 241.82C685.873 241.82 686.097 241.904 686.271 242.057L690.754 245.964C690.885 246.079 691.047 246.153 691.22 246.178C691.393 246.204 691.569 246.179 691.728 246.107C691.887 246.035 692.022 245.918 692.117 245.772C692.211 245.625 692.262 245.454 692.262 245.28L692.283 237.964C692.283 237.722 692.187 237.49 692.017 237.319C691.846 237.148 691.615 237.051 691.373 237.051Z" fill="#FFA077"/>
<path d="M690.884 250.197L686.193 246.114C686.038 245.986 685.842 245.916 685.641 245.916C685.439 245.916 685.244 245.986 685.088 246.114L680.397 250.197C679.648 250.851 680.136 252.302 681.106 252.083C682.233 251.827 685.282 250.091 685.282 250.091C685.395 250.039 685.517 250.013 685.641 250.013C685.764 250.013 685.887 250.039 685.999 250.091C685.999 250.091 689.048 251.827 690.176 252.083C691.146 252.302 691.633 250.851 690.884 250.197Z" fill="#FFA077"/>
<path d="M685.646 253.599H685.635C685.132 253.6 684.65 253.801 684.296 254.158C683.941 254.514 683.742 254.997 683.742 255.5C683.743 256.003 683.943 256.485 684.299 256.841C684.655 257.196 685.138 257.396 685.641 257.396C686.144 257.396 686.626 257.196 686.982 256.841C687.338 256.485 687.538 256.003 687.539 255.5C687.54 254.997 687.341 254.514 686.986 254.158C686.631 253.801 686.149 253.6 685.646 253.599Z" fill="#FFA077"/>
<path d="M708.737 242.539C708.353 242.444 707.904 242.344 707.39 242.238C706.84 242.129 706.282 242.076 705.722 242.079C705.399 242.082 705.078 242.107 704.758 242.151C704.472 242.182 704.188 242.234 703.91 242.309V253.871H699.619V239.548C700.51 239.245 701.417 238.99 702.336 238.786C703.484 238.535 704.656 238.415 705.831 238.426C706.062 238.426 706.34 238.441 706.665 238.469C706.99 238.498 707.316 238.537 707.643 238.585C707.969 238.633 708.295 238.69 708.621 238.758C708.906 238.813 709.185 238.894 709.455 239.001L708.737 242.539Z" fill="white"/>
<path d="M709.312 246.422C709.312 245.08 709.518 243.906 709.929 242.899C710.298 241.96 710.851 241.104 711.555 240.382C712.213 239.72 713.001 239.201 713.87 238.857C714.727 238.515 715.642 238.339 716.564 238.34C718.712 238.34 720.409 238.997 721.656 240.31C722.902 241.623 723.526 243.554 723.526 246.103C723.526 246.353 723.516 246.626 723.497 246.923C723.477 247.221 723.458 247.484 723.44 247.714H713.711C713.749 248.134 713.879 248.54 714.093 248.903C714.307 249.266 714.599 249.577 714.948 249.813C715.677 250.331 716.655 250.59 717.881 250.591C718.658 250.591 719.433 250.519 720.197 250.375C720.833 250.268 721.455 250.092 722.053 249.85L722.628 253.33C722.332 253.47 722.024 253.585 721.708 253.675C721.287 253.798 720.86 253.899 720.428 253.976C719.958 254.066 719.454 254.138 718.918 254.192C718.381 254.25 717.841 254.278 717.301 254.278C715.941 254.278 714.757 254.077 713.75 253.675C712.805 253.313 711.951 252.748 711.248 252.02C710.58 251.31 710.079 250.461 709.781 249.533C709.459 248.528 709.301 247.478 709.312 246.422ZM719.379 244.783C719.359 244.422 719.297 244.064 719.192 243.718C719.09 243.382 718.924 243.07 718.703 242.798C718.473 242.523 718.189 242.297 717.869 242.137C717.478 241.952 717.049 241.864 716.617 241.878C716.192 241.867 715.769 241.951 715.38 242.123C715.05 242.274 714.756 242.495 714.518 242.77C714.283 243.045 714.103 243.362 713.986 243.705C713.863 244.055 713.773 244.416 713.716 244.783H719.379Z" fill="white"/>
<path d="M761 238.755C760.135 241.669 759.232 244.401 758.291 246.952C757.349 249.502 756.321 251.976 755.207 254.372C754.859 255.135 754.453 255.871 753.994 256.572C753.63 257.134 753.183 257.638 752.67 258.068C752.19 258.461 751.637 258.754 751.042 258.932C750.354 259.123 749.641 259.214 748.926 259.201C748.301 259.205 747.678 259.143 747.067 259.014C746.589 258.919 746.121 258.783 745.668 258.607L746.416 255.185C746.8 255.323 747.195 255.429 747.596 255.501C747.958 255.56 748.324 255.589 748.69 255.588C749.458 255.588 750.048 255.381 750.459 254.969C750.923 254.477 751.28 253.894 751.51 253.258C750.532 251.341 749.553 249.188 748.574 246.801C747.513 244.171 746.591 241.488 745.812 238.762H750.357C750.549 239.509 750.773 240.317 751.03 241.187C751.287 242.056 751.561 242.938 751.853 243.833C752.143 244.725 752.437 245.592 752.735 246.436C753.032 247.279 753.317 248.046 753.59 248.735C753.841 248.045 754.101 247.278 754.37 246.434C754.64 245.591 754.904 244.723 755.164 243.831C755.423 242.939 755.674 242.057 755.915 241.185C756.157 240.313 756.373 239.505 756.565 238.76L761 238.755Z" fill="white"/>
<path d="M744.408 250.104C743.975 250.266 743.527 250.387 743.071 250.464C742.601 250.55 742.124 250.595 741.646 250.599C740.688 250.599 740.051 250.329 739.735 249.79C739.419 249.251 739.26 248.533 739.259 247.635V242.305H744.408V238.743H739.259V237.934C739.259 236.095 738.529 234.331 737.228 233.031C735.928 231.731 734.164 231 732.325 231C730.486 231 728.722 231.731 727.421 233.031C726.121 234.331 725.39 236.095 725.39 237.934V253.871H729.676V242.305H733.093V238.743H729.676V237.934C729.676 237.232 729.955 236.559 730.451 236.062C730.948 235.566 731.621 235.287 732.323 235.287C733.026 235.287 733.699 235.566 734.195 236.062C734.692 236.559 734.971 237.232 734.971 237.934V247.694C734.961 248.593 735.052 249.49 735.24 250.37C735.4 251.119 735.732 251.821 736.21 252.419C736.703 253.008 737.336 253.464 738.052 253.742C738.819 254.059 739.787 254.217 740.957 254.217C741.739 254.232 742.521 254.154 743.286 253.987C743.874 253.848 744.451 253.665 745.012 253.44L744.408 250.104Z" fill="white"/>
<path d="M492.382 333.95C497.582 333.95 501.566 334.883 504.332 336.75C507.099 338.583 508.482 341.45 508.482 345.35C508.482 347.783 507.916 349.767 506.782 351.3C505.682 352.8 504.082 353.983 501.982 354.85C502.682 355.717 503.416 356.717 504.182 357.85C504.949 358.95 505.699 360.117 506.432 361.35C507.199 362.55 507.932 363.817 508.632 365.15C509.332 366.45 509.982 367.733 510.582 369H501.832C501.199 367.867 500.549 366.717 499.882 365.55C499.249 364.383 498.582 363.25 497.882 362.15C497.216 361.05 496.549 360.017 495.882 359.05C495.216 358.05 494.549 357.15 493.882 356.35H490.032V369H482.232V334.85C483.932 334.517 485.682 334.283 487.482 334.15C489.316 334.017 490.949 333.95 492.382 333.95ZM492.832 340.6C492.266 340.6 491.749 340.617 491.282 340.65C490.849 340.683 490.432 340.717 490.032 340.75V350.15H492.232C495.166 350.15 497.266 349.783 498.532 349.05C499.799 348.317 500.432 347.067 500.432 345.3C500.432 343.6 499.782 342.4 498.482 341.7C497.216 340.967 495.332 340.6 492.832 340.6ZM510.063 356.05C510.063 353.717 510.413 351.683 511.112 349.95C511.846 348.183 512.796 346.717 513.963 345.55C515.129 344.383 516.463 343.5 517.963 342.9C519.496 342.3 521.063 342 522.663 342C526.396 342 529.346 343.15 531.513 345.45C533.679 347.717 534.763 351.067 534.763 355.5C534.763 355.933 534.746 356.417 534.713 356.95C534.679 357.45 534.646 357.9 534.613 358.3H517.713C517.879 359.833 518.596 361.05 519.863 361.95C521.129 362.85 522.829 363.3 524.963 363.3C526.329 363.3 527.663 363.183 528.963 362.95C530.296 362.683 531.379 362.367 532.213 362L533.213 368.05C532.813 368.25 532.279 368.45 531.613 368.65C530.946 368.85 530.196 369.017 529.363 369.15C528.563 369.317 527.696 369.45 526.763 369.55C525.829 369.65 524.896 369.7 523.963 369.7C521.596 369.7 519.529 369.35 517.763 368.65C516.029 367.95 514.579 367 513.413 365.8C512.279 364.567 511.429 363.117 510.863 361.45C510.329 359.783 510.063 357.983 510.063 356.05ZM527.563 353.2C527.529 352.567 527.413 351.95 527.213 351.35C527.046 350.75 526.763 350.217 526.363 349.75C525.996 349.283 525.513 348.9 524.913 348.6C524.346 348.3 523.629 348.15 522.763 348.15C521.929 348.15 521.213 348.3 520.613 348.6C520.013 348.867 519.513 349.233 519.113 349.7C518.713 350.167 518.396 350.717 518.163 351.35C517.963 351.95 517.813 352.567 517.713 353.2H527.563ZM536.762 355.85C536.762 353.95 537.062 352.167 537.662 350.5C538.295 348.8 539.195 347.333 540.362 346.1C541.528 344.833 542.945 343.833 544.612 343.1C546.278 342.367 548.178 342 550.312 342C551.712 342 552.995 342.133 554.162 342.4C555.328 342.633 556.462 342.983 557.562 343.45L556.012 349.4C555.312 349.133 554.545 348.9 553.712 348.7C552.878 348.5 551.945 348.4 550.912 348.4C548.712 348.4 547.062 349.083 545.962 350.45C544.895 351.817 544.362 353.617 544.362 355.85C544.362 358.217 544.862 360.05 545.862 361.35C546.895 362.65 548.678 363.3 551.212 363.3C552.112 363.3 553.078 363.217 554.112 363.05C555.145 362.883 556.095 362.617 556.962 362.25L558.012 368.35C557.145 368.717 556.062 369.033 554.762 369.3C553.462 369.567 552.028 369.7 550.462 369.7C548.062 369.7 545.995 369.35 544.262 368.65C542.528 367.917 541.095 366.933 539.962 365.7C538.862 364.467 538.045 363.017 537.512 361.35C537.012 359.65 536.762 357.817 536.762 355.85ZM557.992 356.05C557.992 353.717 558.342 351.683 559.042 349.95C559.776 348.183 560.726 346.717 561.892 345.55C563.059 344.383 564.392 343.5 565.892 342.9C567.426 342.3 568.992 342 570.592 342C574.326 342 577.276 343.15 579.442 345.45C581.609 347.717 582.692 351.067 582.692 355.5C582.692 355.933 582.676 356.417 582.642 356.95C582.609 357.45 582.576 357.9 582.542 358.3H565.642C565.809 359.833 566.526 361.05 567.792 361.95C569.059 362.85 570.759 363.3 572.892 363.3C574.259 363.3 575.592 363.183 576.892 362.95C578.226 362.683 579.309 362.367 580.142 362L581.142 368.05C580.742 368.25 580.209 368.45 579.542 368.65C578.876 368.85 578.126 369.017 577.292 369.15C576.492 369.317 575.626 369.45 574.692 369.55C573.759 369.65 572.826 369.7 571.892 369.7C569.526 369.7 567.459 369.35 565.692 368.65C563.959 367.95 562.509 367 561.342 365.8C560.209 364.567 559.359 363.117 558.792 361.45C558.259 359.783 557.992 357.983 557.992 356.05ZM575.492 353.2C575.459 352.567 575.342 351.95 575.142 351.35C574.976 350.75 574.692 350.217 574.292 349.75C573.926 349.283 573.442 348.9 572.842 348.6C572.276 348.3 571.559 348.15 570.692 348.15C569.859 348.15 569.142 348.3 568.542 348.6C567.942 348.867 567.442 349.233 567.042 349.7C566.642 350.167 566.326 350.717 566.092 351.35C565.892 351.95 565.742 352.567 565.642 353.2H575.492ZM593.091 369C591.391 365.667 589.658 361.767 587.891 357.3C586.158 352.833 584.508 347.967 582.941 342.7H590.841C591.175 344 591.558 345.417 591.991 346.95C592.458 348.45 592.925 349.983 593.391 351.55C593.891 353.083 594.375 354.583 594.841 356.05C595.341 357.517 595.825 358.85 596.291 360.05C596.725 358.85 597.191 357.517 597.691 356.05C598.191 354.583 598.675 353.083 599.141 351.55C599.641 349.983 600.108 348.45 600.541 346.95C601.008 345.417 601.408 344 601.741 342.7H609.441C607.875 347.967 606.208 352.833 604.441 357.3C602.708 361.767 600.991 365.667 599.291 369H593.091ZM634.848 355.8C634.848 357.867 634.548 359.767 633.948 361.5C633.348 363.2 632.481 364.667 631.348 365.9C630.215 367.1 628.848 368.033 627.248 368.7C625.681 369.367 623.915 369.7 621.948 369.7C620.015 369.7 618.248 369.367 616.648 368.7C615.081 368.033 613.731 367.1 612.598 365.9C611.465 364.667 610.581 363.2 609.948 361.5C609.315 359.767 608.998 357.867 608.998 355.8C608.998 353.733 609.315 351.85 609.948 350.15C610.615 348.45 611.515 347 612.648 345.8C613.815 344.6 615.181 343.667 616.748 343C618.348 342.333 620.081 342 621.948 342C623.848 342 625.581 342.333 627.148 343C628.748 343.667 630.115 344.6 631.248 345.8C632.381 347 633.265 348.45 633.898 350.15C634.531 351.85 634.848 353.733 634.848 355.8ZM627.248 355.8C627.248 353.5 626.781 351.7 625.848 350.4C624.948 349.067 623.648 348.4 621.948 348.4C620.248 348.4 618.931 349.067 617.998 350.4C617.065 351.7 616.598 353.5 616.598 355.8C616.598 358.1 617.065 359.933 617.998 361.3C618.931 362.633 620.248 363.3 621.948 363.3C623.648 363.3 624.948 362.633 625.848 361.3C626.781 359.933 627.248 358.1 627.248 355.8ZM645.569 369H638.119V342.7H645.569V369ZM646.269 335.1C646.269 336.467 645.819 337.55 644.919 338.35C644.052 339.117 643.019 339.5 641.819 339.5C640.619 339.5 639.569 339.117 638.669 338.35C637.802 337.55 637.369 336.467 637.369 335.1C637.369 333.733 637.802 332.667 638.669 331.9C639.569 331.1 640.619 330.7 641.819 330.7C643.019 330.7 644.052 331.1 644.919 331.9C645.819 332.667 646.269 333.733 646.269 335.1ZM665.922 349.3C665.256 349.133 664.472 348.967 663.572 348.8C662.672 348.6 661.706 348.5 660.672 348.5C660.206 348.5 659.639 348.55 658.972 348.65C658.339 348.717 657.856 348.8 657.522 348.9V369H650.072V344.1C651.406 343.633 652.972 343.2 654.772 342.8C656.606 342.367 658.639 342.15 660.872 342.15C661.272 342.15 661.756 342.183 662.322 342.25C662.889 342.283 663.456 342.35 664.022 342.45C664.589 342.517 665.156 342.617 665.722 342.75C666.289 342.85 666.772 342.983 667.172 343.15L665.922 349.3ZM688.678 369.5C686.511 369.467 684.744 369.233 683.378 368.8C682.044 368.367 680.978 367.767 680.178 367C679.411 366.2 678.878 365.25 678.578 364.15C678.311 363.017 678.178 361.75 678.178 360.35V331.4L685.628 330.2V358.85C685.628 359.517 685.678 360.117 685.778 360.65C685.878 361.183 686.061 361.633 686.328 362C686.628 362.367 687.044 362.667 687.578 362.9C688.111 363.133 688.828 363.283 689.728 363.35L688.678 369.5ZM702.28 363.8C703.014 363.8 703.714 363.783 704.38 363.75C705.047 363.717 705.58 363.667 705.98 363.6V357.95C705.68 357.883 705.23 357.817 704.63 357.75C704.03 357.683 703.48 357.65 702.98 357.65C702.28 357.65 701.614 357.7 700.98 357.8C700.38 357.867 699.847 358.017 699.38 358.25C698.914 358.483 698.547 358.8 698.28 359.2C698.014 359.6 697.88 360.1 697.88 360.7C697.88 361.867 698.264 362.683 699.03 363.15C699.83 363.583 700.914 363.8 702.28 363.8ZM701.68 342C703.88 342 705.714 342.25 707.18 342.75C708.647 343.25 709.814 343.967 710.68 344.9C711.58 345.833 712.214 346.967 712.58 348.3C712.947 349.633 713.13 351.117 713.13 352.75V368.25C712.064 368.483 710.58 368.75 708.68 369.05C706.78 369.383 704.48 369.55 701.78 369.55C700.08 369.55 698.53 369.4 697.13 369.1C695.764 368.8 694.58 368.317 693.58 367.65C692.58 366.95 691.814 366.05 691.28 364.95C690.747 363.85 690.48 362.5 690.48 360.9C690.48 359.367 690.78 358.067 691.38 357C692.014 355.933 692.847 355.083 693.88 354.45C694.914 353.817 696.097 353.367 697.43 353.1C698.764 352.8 700.147 352.65 701.58 352.65C702.547 352.65 703.397 352.7 704.13 352.8C704.897 352.867 705.514 352.967 705.98 353.1V352.4C705.98 351.133 705.597 350.117 704.83 349.35C704.064 348.583 702.73 348.2 700.83 348.2C699.564 348.2 698.314 348.3 697.08 348.5C695.847 348.667 694.78 348.917 693.88 349.25L692.93 343.25C693.364 343.117 693.897 342.983 694.53 342.85C695.197 342.683 695.914 342.55 696.68 342.45C697.447 342.317 698.247 342.217 699.08 342.15C699.947 342.05 700.814 342 701.68 342ZM726.879 343.6C728.146 343.233 729.779 342.9 731.779 342.6C733.779 342.267 735.879 342.1 738.079 342.1C740.312 342.1 742.162 342.4 743.629 343C745.129 343.567 746.312 344.383 747.179 345.45C748.046 346.517 748.662 347.783 749.029 349.25C749.396 350.717 749.579 352.35 749.579 354.15V369H742.129V355.05C742.129 352.65 741.812 350.95 741.179 349.95C740.546 348.95 739.362 348.45 737.629 348.45C737.096 348.45 736.529 348.483 735.929 348.55C735.329 348.583 734.796 348.633 734.329 348.7V369H726.879V343.6ZM752.572 356.05C752.572 353.717 752.922 351.683 753.622 349.95C754.356 348.183 755.306 346.717 756.472 345.55C757.639 344.383 758.972 343.5 760.472 342.9C762.006 342.3 763.572 342 765.172 342C768.906 342 771.856 343.15 774.022 345.45C776.189 347.717 777.272 351.067 777.272 355.5C777.272 355.933 777.256 356.417 777.222 356.95C777.189 357.45 777.156 357.9 777.122 358.3H760.222C760.389 359.833 761.106 361.05 762.372 361.95C763.639 362.85 765.339 363.3 767.472 363.3C768.839 363.3 770.172 363.183 771.472 362.95C772.806 362.683 773.889 362.367 774.722 362L775.722 368.05C775.322 368.25 774.789 368.45 774.122 368.65C773.456 368.85 772.706 369.017 771.872 369.15C771.072 369.317 770.206 369.45 769.272 369.55C768.339 369.65 767.406 369.7 766.472 369.7C764.106 369.7 762.039 369.35 760.272 368.65C758.539 367.95 757.089 367 755.922 365.8C754.789 364.567 753.939 363.117 753.372 361.45C752.839 359.783 752.572 357.983 752.572 356.05ZM770.072 353.2C770.039 352.567 769.922 351.95 769.722 351.35C769.556 350.75 769.272 350.217 768.872 349.75C768.506 349.283 768.022 348.9 767.422 348.6C766.856 348.3 766.139 348.15 765.272 348.15C764.439 348.15 763.722 348.3 763.122 348.6C762.522 348.867 762.022 349.233 761.622 349.7C761.222 350.167 760.906 350.717 760.672 351.35C760.472 351.95 760.322 352.567 760.222 353.2H770.072ZM796.521 353.9C795.855 356.433 795.138 358.95 794.371 361.45C793.638 363.95 792.855 366.467 792.021 369H786.221C785.621 367.6 784.971 365.933 784.271 364C783.571 362.067 782.838 359.967 782.071 357.7C781.338 355.4 780.571 352.983 779.771 350.45C779.005 347.883 778.255 345.3 777.521 342.7H785.371C785.638 343.9 785.921 345.217 786.221 346.65C786.555 348.05 786.888 349.5 787.221 351C787.588 352.5 787.955 354.017 788.321 355.55C788.721 357.05 789.121 358.5 789.521 359.9C789.955 358.433 790.371 356.933 790.771 355.4C791.205 353.867 791.605 352.367 791.971 350.9C792.371 349.4 792.738 347.967 793.071 346.6C793.438 345.2 793.755 343.9 794.021 342.7H799.421C799.688 343.9 799.988 345.2 800.321 346.6C800.655 347.967 801.005 349.4 801.371 350.9C801.738 352.367 802.121 353.867 802.521 355.4C802.921 356.933 803.338 358.433 803.771 359.9C804.171 358.5 804.571 357.05 804.971 355.55C805.371 354.017 805.738 352.5 806.071 351C806.438 349.5 806.771 348.05 807.071 346.65C807.405 345.217 807.705 343.9 807.971 342.7H815.721C814.988 345.3 814.221 347.883 813.421 350.45C812.655 352.983 811.888 355.4 811.121 357.7C810.388 359.967 809.655 362.067 808.921 364C808.221 365.933 807.571 367.6 806.971 369H801.171C800.338 366.467 799.521 363.95 798.721 361.45C797.921 358.95 797.188 356.433 796.521 353.9ZM824.78 363.65C826.147 363.65 827.114 363.517 827.68 363.25C828.247 362.983 828.53 362.467 828.53 361.7C828.53 361.1 828.164 360.583 827.43 360.15C826.697 359.683 825.58 359.167 824.08 358.6C822.914 358.167 821.847 357.717 820.88 357.25C819.947 356.783 819.147 356.233 818.48 355.6C817.814 354.933 817.297 354.15 816.93 353.25C816.564 352.35 816.38 351.267 816.38 350C816.38 347.533 817.297 345.583 819.13 344.15C820.964 342.717 823.48 342 826.68 342C828.28 342 829.814 342.15 831.28 342.45C832.747 342.717 833.914 343.017 834.78 343.35L833.48 349.15C832.614 348.85 831.664 348.583 830.63 348.35C829.63 348.117 828.497 348 827.23 348C824.897 348 823.73 348.65 823.73 349.95C823.73 350.25 823.78 350.517 823.88 350.75C823.98 350.983 824.18 351.217 824.48 351.45C824.78 351.65 825.18 351.883 825.68 352.15C826.214 352.383 826.88 352.65 827.68 352.95C829.314 353.55 830.664 354.15 831.73 354.75C832.797 355.317 833.63 355.95 834.23 356.65C834.864 357.317 835.297 358.067 835.53 358.9C835.797 359.733 835.93 360.7 835.93 361.8C835.93 364.4 834.947 366.367 832.98 367.7C831.047 369.033 828.297 369.7 824.73 369.7C822.397 369.7 820.447 369.5 818.88 369.1C817.347 368.7 816.28 368.367 815.68 368.1L816.93 362.05C818.197 362.55 819.497 362.95 820.83 363.25C822.164 363.517 823.48 363.65 824.78 363.65ZM849.498 369.5C847.331 369.467 845.565 369.233 844.198 368.8C842.865 368.367 841.798 367.767 840.998 367C840.231 366.2 839.698 365.25 839.398 364.15C839.131 363.017 838.998 361.75 838.998 360.35V331.4L846.448 330.2V358.85C846.448 359.517 846.498 360.117 846.598 360.65C846.698 361.183 846.881 361.633 847.148 362C847.448 362.367 847.865 362.667 848.398 362.9C848.931 363.133 849.648 363.283 850.548 363.35L849.498 369.5ZM851.068 356.05C851.068 353.717 851.418 351.683 852.118 349.95C852.852 348.183 853.802 346.717 854.968 345.55C856.135 344.383 857.468 343.5 858.968 342.9C860.502 342.3 862.068 342 863.668 342C867.402 342 870.352 343.15 872.518 345.45C874.685 347.717 875.768 351.067 875.768 355.5C875.768 355.933 875.752 356.417 875.718 356.95C875.685 357.45 875.652 357.9 875.618 358.3H858.718C858.885 359.833 859.602 361.05 860.868 361.95C862.135 362.85 863.835 363.3 865.968 363.3C867.335 363.3 868.668 363.183 869.968 362.95C871.302 362.683 872.385 362.367 873.218 362L874.218 368.05C873.818 368.25 873.285 368.45 872.618 368.65C871.952 368.85 871.202 369.017 870.368 369.15C869.568 369.317 868.702 369.45 867.768 369.55C866.835 369.65 865.902 369.7 864.968 369.7C862.602 369.7 860.535 369.35 858.768 368.65C857.035 367.95 855.585 367 854.418 365.8C853.285 364.567 852.435 363.117 851.868 361.45C851.335 359.783 851.068 357.983 851.068 356.05ZM868.568 353.2C868.535 352.567 868.418 351.95 868.218 351.35C868.052 350.75 867.768 350.217 867.368 349.75C867.002 349.283 866.518 348.9 865.918 348.6C865.352 348.3 864.635 348.15 863.768 348.15C862.935 348.15 862.218 348.3 861.618 348.6C861.018 348.867 860.518 349.233 860.118 349.7C859.718 350.167 859.402 350.717 859.168 351.35C858.968 351.95 858.818 352.567 858.718 353.2H868.568ZM878.768 336.15L886.218 334.95V342.7H895.168V348.9H886.218V358.15C886.218 359.717 886.484 360.967 887.018 361.9C887.584 362.833 888.701 363.3 890.368 363.3C891.168 363.3 891.984 363.233 892.818 363.1C893.684 362.933 894.468 362.717 895.168 362.45L896.218 368.25C895.318 368.617 894.318 368.933 893.218 369.2C892.118 369.467 890.768 369.6 889.168 369.6C887.134 369.6 885.451 369.333 884.118 368.8C882.784 368.233 881.718 367.467 880.918 366.5C880.118 365.5 879.551 364.3 879.218 362.9C878.918 361.5 878.768 359.95 878.768 358.25V336.15ZM898.484 336.15L905.934 334.95V342.7H914.884V348.9H905.934V358.15C905.934 359.717 906.201 360.967 906.734 361.9C907.301 362.833 908.418 363.3 910.084 363.3C910.884 363.3 911.701 363.233 912.534 363.1C913.401 362.933 914.184 362.717 914.884 362.45L915.934 368.25C915.034 368.617 914.034 368.933 912.934 369.2C911.834 369.467 910.484 369.6 908.884 369.6C906.851 369.6 905.168 369.333 903.834 368.8C902.501 368.233 901.434 367.467 900.634 366.5C899.834 365.5 899.268 364.3 898.934 362.9C898.634 361.5 898.484 359.95 898.484 358.25V336.15ZM916.225 356.05C916.225 353.717 916.575 351.683 917.275 349.95C918.008 348.183 918.958 346.717 920.125 345.55C921.291 344.383 922.625 343.5 924.125 342.9C925.658 342.3 927.225 342 928.825 342C932.558 342 935.508 343.15 937.675 345.45C939.841 347.717 940.925 351.067 940.925 355.5C940.925 355.933 940.908 356.417 940.875 356.95C940.841 357.45 940.808 357.9 940.775 358.3H923.875C924.041 359.833 924.758 361.05 926.025 361.95C927.291 362.85 928.991 363.3 931.125 363.3C932.491 363.3 933.825 363.183 935.125 362.95C936.458 362.683 937.541 362.367 938.375 362L939.375 368.05C938.975 368.25 938.441 368.45 937.775 368.65C937.108 368.85 936.358 369.017 935.525 369.15C934.725 369.317 933.858 369.45 932.925 369.55C931.991 369.65 931.058 369.7 930.125 369.7C927.758 369.7 925.691 369.35 923.925 368.65C922.191 367.95 920.741 367 919.575 365.8C918.441 364.567 917.591 363.117 917.025 361.45C916.491 359.783 916.225 357.983 916.225 356.05ZM933.725 353.2C933.691 352.567 933.575 351.95 933.375 351.35C933.208 350.75 932.925 350.217 932.525 349.75C932.158 349.283 931.675 348.9 931.075 348.6C930.508 348.3 929.791 348.15 928.925 348.15C928.091 348.15 927.375 348.3 926.775 348.6C926.175 348.867 925.675 349.233 925.275 349.7C924.875 350.167 924.558 350.717 924.325 351.35C924.125 351.95 923.975 352.567 923.875 353.2H933.725ZM960.024 349.3C959.357 349.133 958.574 348.967 957.674 348.8C956.774 348.6 955.807 348.5 954.774 348.5C954.307 348.5 953.74 348.55 953.074 348.65C952.44 348.717 951.957 348.8 951.624 348.9V369H944.174V344.1C945.507 343.633 947.074 343.2 948.874 342.8C950.707 342.367 952.74 342.15 954.974 342.15C955.374 342.15 955.857 342.183 956.424 342.25C956.99 342.283 957.557 342.35 958.124 342.45C958.69 342.517 959.257 342.617 959.824 342.75C960.39 342.85 960.874 342.983 961.274 343.15L960.024 349.3Z" fill="white"/>
<path d="M630.813 430.2L626.571 440H624.331L620.103 430.2H622.553L625.535 437.2L628.559 430.2H630.813ZM634.501 440.112C633.708 440.112 632.994 439.949 632.359 439.622C631.734 439.286 631.244 438.824 630.889 438.236C630.535 437.648 630.357 436.981 630.357 436.234C630.357 435.487 630.535 434.82 630.889 434.232C631.244 433.644 631.734 433.187 632.359 432.86C632.994 432.524 633.708 432.356 634.501 432.356C635.295 432.356 636.004 432.524 636.629 432.86C637.255 433.187 637.745 433.644 638.099 434.232C638.454 434.82 638.631 435.487 638.631 436.234C638.631 436.981 638.454 437.648 638.099 438.236C637.745 438.824 637.255 439.286 636.629 439.622C636.004 439.949 635.295 440.112 634.501 440.112ZM634.501 438.32C635.061 438.32 635.519 438.133 635.873 437.76C636.237 437.377 636.419 436.869 636.419 436.234C636.419 435.599 636.237 435.095 635.873 434.722C635.519 434.339 635.061 434.148 634.501 434.148C633.941 434.148 633.479 434.339 633.115 434.722C632.751 435.095 632.569 435.599 632.569 436.234C632.569 436.869 632.751 437.377 633.115 437.76C633.479 438.133 633.941 438.32 634.501 438.32ZM647.679 432.468V440H645.607V439.104C645.318 439.431 644.972 439.683 644.571 439.86C644.17 440.028 643.736 440.112 643.269 440.112C642.28 440.112 641.496 439.827 640.917 439.258C640.338 438.689 640.049 437.844 640.049 436.724V432.468H642.233V436.402C642.233 437.615 642.742 438.222 643.759 438.222C644.282 438.222 644.702 438.054 645.019 437.718C645.336 437.373 645.495 436.864 645.495 436.192V432.468H647.679ZM652.236 440.112C651.611 440.112 651 440.037 650.402 439.888C649.805 439.729 649.329 439.533 648.974 439.3L649.702 437.732C650.038 437.947 650.444 438.124 650.92 438.264C651.396 438.395 651.863 438.46 652.32 438.46C653.244 438.46 653.706 438.231 653.706 437.774C653.706 437.559 653.58 437.405 653.328 437.312C653.076 437.219 652.689 437.139 652.166 437.074C651.55 436.981 651.042 436.873 650.64 436.752C650.239 436.631 649.889 436.416 649.59 436.108C649.301 435.8 649.156 435.361 649.156 434.792C649.156 434.316 649.292 433.896 649.562 433.532C649.842 433.159 650.244 432.869 650.766 432.664C651.298 432.459 651.924 432.356 652.642 432.356C653.174 432.356 653.702 432.417 654.224 432.538C654.756 432.65 655.195 432.809 655.54 433.014L654.812 434.568C654.15 434.195 653.426 434.008 652.642 434.008C652.176 434.008 651.826 434.073 651.592 434.204C651.359 434.335 651.242 434.503 651.242 434.708C651.242 434.941 651.368 435.105 651.62 435.198C651.872 435.291 652.274 435.38 652.824 435.464C653.44 435.567 653.944 435.679 654.336 435.8C654.728 435.912 655.069 436.122 655.358 436.43C655.648 436.738 655.792 437.167 655.792 437.718C655.792 438.185 655.652 438.6 655.372 438.964C655.092 439.328 654.682 439.613 654.14 439.818C653.608 440.014 652.974 440.112 652.236 440.112ZM668.581 432.468L665.403 440H663.149L659.985 432.468H662.239L664.325 437.592L666.481 432.468H668.581ZM672.851 440.112C672.057 440.112 671.343 439.949 670.709 439.622C670.083 439.286 669.593 438.824 669.239 438.236C668.884 437.648 668.707 436.981 668.707 436.234C668.707 435.487 668.884 434.82 669.239 434.232C669.593 433.644 670.083 433.187 670.709 432.86C671.343 432.524 672.057 432.356 672.851 432.356C673.644 432.356 674.353 432.524 674.979 432.86C675.604 433.187 676.094 433.644 676.449 434.232C676.803 434.82 676.981 435.487 676.981 436.234C676.981 436.981 676.803 437.648 676.449 438.236C676.094 438.824 675.604 439.286 674.979 439.622C674.353 439.949 673.644 440.112 672.851 440.112ZM672.851 438.32C673.411 438.32 673.868 438.133 674.223 437.76C674.587 437.377 674.769 436.869 674.769 436.234C674.769 435.599 674.587 435.095 674.223 434.722C673.868 434.339 673.411 434.148 672.851 434.148C672.291 434.148 671.829 434.339 671.465 434.722C671.101 435.095 670.919 435.599 670.919 436.234C670.919 436.869 671.101 437.377 671.465 437.76C671.829 438.133 672.291 438.32 672.851 438.32ZM686.029 432.468V440H683.957V439.104C683.667 439.431 683.322 439.683 682.921 439.86C682.519 440.028 682.085 440.112 681.619 440.112C680.629 440.112 679.845 439.827 679.267 439.258C678.688 438.689 678.399 437.844 678.399 436.724V432.468H680.583V436.402C680.583 437.615 681.091 438.222 682.109 438.222C682.631 438.222 683.051 438.054 683.369 437.718C683.686 437.373 683.845 436.864 683.845 436.192V432.468H686.029ZM688.052 429.612H690.236V440H688.052V429.612ZM699.641 436.262C699.641 436.29 699.627 436.486 699.599 436.85H693.901C694.004 437.317 694.246 437.685 694.629 437.956C695.012 438.227 695.488 438.362 696.057 438.362C696.449 438.362 696.794 438.306 697.093 438.194C697.401 438.073 697.686 437.886 697.947 437.634L699.109 438.894C698.4 439.706 697.364 440.112 696.001 440.112C695.152 440.112 694.4 439.949 693.747 439.622C693.094 439.286 692.59 438.824 692.235 438.236C691.88 437.648 691.703 436.981 691.703 436.234C691.703 435.497 691.876 434.834 692.221 434.246C692.576 433.649 693.056 433.187 693.663 432.86C694.279 432.524 694.965 432.356 695.721 432.356C696.458 432.356 697.126 432.515 697.723 432.832C698.32 433.149 698.787 433.607 699.123 434.204C699.468 434.792 699.641 435.478 699.641 436.262ZM695.735 434.008C695.24 434.008 694.825 434.148 694.489 434.428C694.153 434.708 693.948 435.091 693.873 435.576H697.583C697.508 435.1 697.303 434.722 696.967 434.442C696.631 434.153 696.22 434.008 695.735 434.008ZM707.229 438.32V440H700.509V438.684L704.345 434.148H700.607V432.468H707.103V433.784L703.267 438.32H707.229ZM714.679 433.462C714.94 433.098 715.29 432.823 715.729 432.636C716.177 432.449 716.69 432.356 717.269 432.356V434.372C717.026 434.353 716.863 434.344 716.779 434.344C716.154 434.344 715.664 434.521 715.309 434.876C714.954 435.221 714.777 435.744 714.777 436.444V440H712.593V432.468H714.679V433.462ZM725.877 436.262C725.877 436.29 725.863 436.486 725.835 436.85H720.137C720.24 437.317 720.483 437.685 720.865 437.956C721.248 438.227 721.724 438.362 722.293 438.362C722.685 438.362 723.031 438.306 723.329 438.194C723.637 438.073 723.922 437.886 724.183 437.634L725.345 438.894C724.636 439.706 723.6 440.112 722.237 440.112C721.388 440.112 720.637 439.949 719.983 439.622C719.33 439.286 718.826 438.824 718.471 438.236C718.117 437.648 717.939 436.981 717.939 436.234C717.939 435.497 718.112 434.834 718.457 434.246C718.812 433.649 719.293 433.187 719.899 432.86C720.515 432.524 721.201 432.356 721.957 432.356C722.695 432.356 723.362 432.515 723.959 432.832C724.557 433.149 725.023 433.607 725.359 434.204C725.705 434.792 725.877 435.478 725.877 436.262ZM721.971 434.008C721.477 434.008 721.061 434.148 720.725 434.428C720.389 434.708 720.184 435.091 720.109 435.576H723.819C723.745 435.1 723.539 434.722 723.203 434.442C722.867 434.153 722.457 434.008 721.971 434.008ZM730.971 440.112C730.169 440.112 729.445 439.949 728.801 439.622C728.167 439.286 727.667 438.824 727.303 438.236C726.949 437.648 726.771 436.981 726.771 436.234C726.771 435.487 726.949 434.82 727.303 434.232C727.667 433.644 728.167 433.187 728.801 432.86C729.445 432.524 730.169 432.356 730.971 432.356C731.765 432.356 732.455 432.524 733.043 432.86C733.641 433.187 734.075 433.658 734.345 434.274L732.651 435.184C732.259 434.493 731.695 434.148 730.957 434.148C730.388 434.148 729.917 434.335 729.543 434.708C729.17 435.081 728.983 435.59 728.983 436.234C728.983 436.878 729.17 437.387 729.543 437.76C729.917 438.133 730.388 438.32 730.957 438.32C731.704 438.32 732.269 437.975 732.651 437.284L734.345 438.208C734.075 438.805 733.641 439.272 733.043 439.608C732.455 439.944 731.765 440.112 730.971 440.112ZM742.885 436.262C742.885 436.29 742.871 436.486 742.843 436.85H737.145C737.248 437.317 737.49 437.685 737.873 437.956C738.256 438.227 738.732 438.362 739.301 438.362C739.693 438.362 740.038 438.306 740.337 438.194C740.645 438.073 740.93 437.886 741.191 437.634L742.353 438.894C741.644 439.706 740.608 440.112 739.245 440.112C738.396 440.112 737.644 439.949 736.991 439.622C736.338 439.286 735.834 438.824 735.479 438.236C735.124 437.648 734.947 436.981 734.947 436.234C734.947 435.497 735.12 434.834 735.465 434.246C735.82 433.649 736.3 433.187 736.907 432.86C737.523 432.524 738.209 432.356 738.965 432.356C739.702 432.356 740.37 432.515 740.967 432.832C741.564 433.149 742.031 433.607 742.367 434.204C742.712 434.792 742.885 435.478 742.885 436.262ZM738.979 434.008C738.484 434.008 738.069 434.148 737.733 434.428C737.397 434.708 737.192 435.091 737.117 435.576H740.827C740.752 435.1 740.547 434.722 740.211 434.442C739.875 434.153 739.464 434.008 738.979 434.008ZM751.678 432.468L748.5 440H746.246L743.082 432.468H745.336L747.422 437.592L749.578 432.468H751.678ZM755.948 440.112C755.155 440.112 754.441 439.949 753.806 439.622C753.181 439.286 752.691 438.824 752.336 438.236C751.982 437.648 751.804 436.981 751.804 436.234C751.804 435.487 751.982 434.82 752.336 434.232C752.691 433.644 753.181 433.187 753.806 432.86C754.441 432.524 755.155 432.356 755.948 432.356C756.742 432.356 757.451 432.524 758.076 432.86C758.702 433.187 759.192 433.644 759.546 434.232C759.901 434.82 760.078 435.487 760.078 436.234C760.078 436.981 759.901 437.648 759.546 438.236C759.192 438.824 758.702 439.286 758.076 439.622C757.451 439.949 756.742 440.112 755.948 440.112ZM755.948 438.32C756.508 438.32 756.966 438.133 757.32 437.76C757.684 437.377 757.866 436.869 757.866 436.234C757.866 435.599 757.684 435.095 757.32 434.722C756.966 434.339 756.508 434.148 755.948 434.148C755.388 434.148 754.926 434.339 754.562 434.722C754.198 435.095 754.016 435.599 754.016 436.234C754.016 436.869 754.198 437.377 754.562 437.76C754.926 438.133 755.388 438.32 755.948 438.32ZM761.538 432.468H763.722V440H761.538V432.468ZM762.63 431.418C762.229 431.418 761.902 431.301 761.65 431.068C761.398 430.835 761.272 430.545 761.272 430.2C761.272 429.855 761.398 429.565 761.65 429.332C761.902 429.099 762.229 428.982 762.63 428.982C763.032 428.982 763.358 429.094 763.61 429.318C763.862 429.542 763.988 429.822 763.988 430.158C763.988 430.522 763.862 430.825 763.61 431.068C763.358 431.301 763.032 431.418 762.63 431.418ZM767.835 433.462C768.097 433.098 768.447 432.823 768.885 432.636C769.333 432.449 769.847 432.356 770.425 432.356V434.372C770.183 434.353 770.019 434.344 769.935 434.344C769.31 434.344 768.82 434.521 768.465 434.876C768.111 435.221 767.933 435.744 767.933 436.444V440H765.749V432.468H767.835V433.462ZM780.195 432.356C780.895 432.356 781.53 432.519 782.099 432.846C782.678 433.163 783.131 433.616 783.457 434.204C783.784 434.783 783.947 435.459 783.947 436.234C783.947 437.009 783.784 437.69 783.457 438.278C783.131 438.857 782.678 439.309 782.099 439.636C781.53 439.953 780.895 440.112 780.195 440.112C779.159 440.112 778.371 439.785 777.829 439.132V440H775.743V429.612H777.927V433.266C778.478 432.659 779.234 432.356 780.195 432.356ZM779.817 438.32C780.377 438.32 780.835 438.133 781.189 437.76C781.553 437.377 781.735 436.869 781.735 436.234C781.735 435.599 781.553 435.095 781.189 434.722C780.835 434.339 780.377 434.148 779.817 434.148C779.257 434.148 778.795 434.339 778.431 434.722C778.077 435.095 777.899 435.599 777.899 436.234C777.899 436.869 778.077 437.377 778.431 437.76C778.795 438.133 779.257 438.32 779.817 438.32ZM785.409 429.612H787.593V440H785.409V429.612ZM792.658 432.356C793.825 432.356 794.721 432.636 795.346 433.196C795.972 433.747 796.284 434.582 796.284 435.702V440H794.24V439.062C793.83 439.762 793.064 440.112 791.944 440.112C791.366 440.112 790.862 440.014 790.432 439.818C790.012 439.622 789.69 439.351 789.466 439.006C789.242 438.661 789.13 438.269 789.13 437.83C789.13 437.13 789.392 436.579 789.914 436.178C790.446 435.777 791.263 435.576 792.364 435.576H794.1C794.1 435.1 793.956 434.736 793.666 434.484C793.377 434.223 792.943 434.092 792.364 434.092C791.963 434.092 791.566 434.157 791.174 434.288C790.792 434.409 790.465 434.577 790.194 434.792L789.41 433.266C789.821 432.977 790.311 432.753 790.88 432.594C791.459 432.435 792.052 432.356 792.658 432.356ZM792.49 438.642C792.864 438.642 793.195 438.558 793.484 438.39C793.774 438.213 793.979 437.956 794.1 437.62V436.85H792.602C791.706 436.85 791.258 437.144 791.258 437.732C791.258 438.012 791.366 438.236 791.58 438.404C791.804 438.563 792.108 438.642 792.49 438.642ZM802.713 432.356C803.413 432.356 804.048 432.519 804.617 432.846C805.196 433.163 805.648 433.616 805.975 434.204C806.302 434.783 806.465 435.459 806.465 436.234C806.465 437.009 806.302 437.69 805.975 438.278C805.648 438.857 805.196 439.309 804.617 439.636C804.048 439.953 803.413 440.112 802.713 440.112C801.677 440.112 800.888 439.785 800.347 439.132V440H798.261V429.612H800.445V433.266C800.996 432.659 801.752 432.356 802.713 432.356ZM802.335 438.32C802.895 438.32 803.352 438.133 803.707 437.76C804.071 437.377 804.253 436.869 804.253 436.234C804.253 435.599 804.071 435.095 803.707 434.722C803.352 434.339 802.895 434.148 802.335 434.148C801.775 434.148 801.313 434.339 800.949 434.722C800.594 435.095 800.417 435.599 800.417 436.234C800.417 436.869 800.594 437.377 800.949 437.76C801.313 438.133 801.775 438.32 802.335 438.32ZM807.927 429.612H810.111V440H807.927V429.612ZM815.176 432.356C816.343 432.356 817.239 432.636 817.864 433.196C818.489 433.747 818.802 434.582 818.802 435.702V440H816.758V439.062C816.347 439.762 815.582 440.112 814.462 440.112C813.883 440.112 813.379 440.014 812.95 439.818C812.53 439.622 812.208 439.351 811.984 439.006C811.76 438.661 811.648 438.269 811.648 437.83C811.648 437.13 811.909 436.579 812.432 436.178C812.964 435.777 813.781 435.576 814.882 435.576H816.618C816.618 435.1 816.473 434.736 816.184 434.484C815.895 434.223 815.461 434.092 814.882 434.092C814.481 434.092 814.084 434.157 813.692 434.288C813.309 434.409 812.983 434.577 812.712 434.792L811.928 433.266C812.339 432.977 812.829 432.753 813.398 432.594C813.977 432.435 814.569 432.356 815.176 432.356ZM815.008 438.642C815.381 438.642 815.713 438.558 816.002 438.39C816.291 438.213 816.497 437.956 816.618 437.62V436.85H815.12C814.224 436.85 813.776 437.144 813.776 437.732C813.776 438.012 813.883 438.236 814.098 438.404C814.322 438.563 814.625 438.642 815.008 438.642Z" fill="white"/>
<path d="M621.375 472.2V482H620.521L614.221 474.048V482H613.185V472.2H614.039L620.353 480.152V472.2H621.375ZM627.374 482.07C626.664 482.07 626.025 481.911 625.456 481.594C624.886 481.267 624.438 480.819 624.112 480.25C623.785 479.681 623.622 479.037 623.622 478.318C623.622 477.599 623.785 476.955 624.112 476.386C624.438 475.817 624.886 475.373 625.456 475.056C626.025 474.739 626.664 474.58 627.374 474.58C628.083 474.58 628.722 474.739 629.292 475.056C629.861 475.373 630.304 475.817 630.622 476.386C630.948 476.955 631.112 477.599 631.112 478.318C631.112 479.037 630.948 479.681 630.622 480.25C630.304 480.819 629.861 481.267 629.292 481.594C628.722 481.911 628.083 482.07 627.374 482.07ZM627.374 481.188C627.896 481.188 628.363 481.071 628.774 480.838C629.194 480.595 629.52 480.255 629.754 479.816C629.987 479.377 630.104 478.878 630.104 478.318C630.104 477.758 629.987 477.259 629.754 476.82C629.52 476.381 629.194 476.045 628.774 475.812C628.363 475.569 627.896 475.448 627.374 475.448C626.851 475.448 626.38 475.569 625.96 475.812C625.549 476.045 625.222 476.381 624.98 476.82C624.746 477.259 624.63 477.758 624.63 478.318C624.63 478.878 624.746 479.377 624.98 479.816C625.222 480.255 625.549 480.595 625.96 480.838C626.38 481.071 626.851 481.188 627.374 481.188ZM637.019 481.552C636.832 481.72 636.599 481.851 636.319 481.944C636.048 482.028 635.764 482.07 635.465 482.07C634.774 482.07 634.242 481.883 633.869 481.51C633.496 481.137 633.309 480.609 633.309 479.928V475.476H631.993V474.636H633.309V473.026H634.303V474.636H636.543V475.476H634.303V479.872C634.303 480.311 634.41 480.647 634.625 480.88C634.849 481.104 635.166 481.216 635.577 481.216C635.782 481.216 635.978 481.183 636.165 481.118C636.361 481.053 636.529 480.959 636.669 480.838L637.019 481.552ZM639.78 476.078C640.014 475.583 640.359 475.21 640.816 474.958C641.283 474.706 641.857 474.58 642.538 474.58V475.546L642.3 475.532C641.526 475.532 640.919 475.77 640.48 476.246C640.042 476.722 639.822 477.389 639.822 478.248V482H638.828V474.636H639.78V476.078ZM650.682 478.626H644.522C644.578 479.391 644.872 480.012 645.404 480.488C645.936 480.955 646.608 481.188 647.42 481.188C647.877 481.188 648.297 481.109 648.68 480.95C649.062 480.782 649.394 480.539 649.674 480.222L650.234 480.866C649.907 481.258 649.496 481.557 649.002 481.762C648.516 481.967 647.98 482.07 647.392 482.07C646.636 482.07 645.964 481.911 645.376 481.594C644.797 481.267 644.344 480.819 644.018 480.25C643.691 479.681 643.528 479.037 643.528 478.318C643.528 477.599 643.682 476.955 643.99 476.386C644.307 475.817 644.736 475.373 645.278 475.056C645.828 474.739 646.444 474.58 647.126 474.58C647.807 474.58 648.418 474.739 648.96 475.056C649.501 475.373 649.926 475.817 650.234 476.386C650.542 476.946 650.696 477.59 650.696 478.318L650.682 478.626ZM647.126 475.434C646.416 475.434 645.819 475.663 645.334 476.12C644.858 476.568 644.587 477.156 644.522 477.884H649.744C649.678 477.156 649.403 476.568 648.918 476.12C648.442 475.663 647.844 475.434 647.126 475.434ZM659.435 482.07C658.707 482.07 658.054 481.911 657.475 481.594C656.906 481.277 656.458 480.833 656.131 480.264C655.804 479.685 655.641 479.037 655.641 478.318C655.641 477.599 655.804 476.955 656.131 476.386C656.458 475.817 656.906 475.373 657.475 475.056C658.054 474.739 658.707 474.58 659.435 474.58C660.07 474.58 660.634 474.706 661.129 474.958C661.633 475.201 662.03 475.56 662.319 476.036L661.577 476.54C661.334 476.176 661.026 475.905 660.653 475.728C660.28 475.541 659.874 475.448 659.435 475.448C658.903 475.448 658.422 475.569 657.993 475.812C657.573 476.045 657.242 476.381 656.999 476.82C656.766 477.259 656.649 477.758 656.649 478.318C656.649 478.887 656.766 479.391 656.999 479.83C657.242 480.259 657.573 480.595 657.993 480.838C658.422 481.071 658.903 481.188 659.435 481.188C659.874 481.188 660.28 481.099 660.653 480.922C661.026 480.745 661.334 480.474 661.577 480.11L662.319 480.614C662.03 481.09 661.633 481.454 661.129 481.706C660.625 481.949 660.06 482.07 659.435 482.07ZM667.159 482.07C666.449 482.07 665.81 481.911 665.241 481.594C664.671 481.267 664.223 480.819 663.897 480.25C663.57 479.681 663.407 479.037 663.407 478.318C663.407 477.599 663.57 476.955 663.897 476.386C664.223 475.817 664.671 475.373 665.241 475.056C665.81 474.739 666.449 474.58 667.159 474.58C667.868 474.58 668.507 474.739 669.077 475.056C669.646 475.373 670.089 475.817 670.407 476.386C670.733 476.955 670.897 477.599 670.897 478.318C670.897 479.037 670.733 479.681 670.407 480.25C670.089 480.819 669.646 481.267 669.077 481.594C668.507 481.911 667.868 482.07 667.159 482.07ZM667.159 481.188C667.681 481.188 668.148 481.071 668.559 480.838C668.979 480.595 669.305 480.255 669.539 479.816C669.772 479.377 669.889 478.878 669.889 478.318C669.889 477.758 669.772 477.259 669.539 476.82C669.305 476.381 668.979 476.045 668.559 475.812C668.148 475.569 667.681 475.448 667.159 475.448C666.636 475.448 666.165 475.569 665.745 475.812C665.334 476.045 665.007 476.381 664.765 476.82C664.531 477.259 664.415 477.758 664.415 478.318C664.415 478.878 664.531 479.377 664.765 479.816C665.007 480.255 665.334 480.595 665.745 480.838C666.165 481.071 666.636 481.188 667.159 481.188ZM676.678 474.58C677.602 474.58 678.335 474.851 678.876 475.392C679.427 475.924 679.702 476.703 679.702 477.73V482H678.708V477.828C678.708 477.063 678.517 476.479 678.134 476.078C677.751 475.677 677.205 475.476 676.496 475.476C675.703 475.476 675.073 475.714 674.606 476.19C674.149 476.657 673.92 477.305 673.92 478.136V482H672.926V474.636H673.878V475.994C674.149 475.546 674.522 475.201 674.998 474.958C675.483 474.706 676.043 474.58 676.678 474.58ZM686.279 481.552C686.092 481.72 685.859 481.851 685.579 481.944C685.308 482.028 685.023 482.07 684.725 482.07C684.034 482.07 683.502 481.883 683.129 481.51C682.755 481.137 682.569 480.609 682.569 479.928V475.476H681.253V474.636H682.569V473.026H683.563V474.636H685.803V475.476H683.563V479.872C683.563 480.311 683.67 480.647 683.885 480.88C684.109 481.104 684.426 481.216 684.837 481.216C685.042 481.216 685.238 481.183 685.425 481.118C685.621 481.053 685.789 480.959 685.929 480.838L686.279 481.552ZM694.24 478.626H688.08C688.136 479.391 688.43 480.012 688.962 480.488C689.494 480.955 690.166 481.188 690.978 481.188C691.436 481.188 691.856 481.109 692.238 480.95C692.621 480.782 692.952 480.539 693.232 480.222L693.792 480.866C693.466 481.258 693.055 481.557 692.56 481.762C692.075 481.967 691.538 482.07 690.95 482.07C690.194 482.07 689.522 481.911 688.934 481.594C688.356 481.267 687.903 480.819 687.576 480.25C687.25 479.681 687.086 479.037 687.086 478.318C687.086 477.599 687.24 476.955 687.548 476.386C687.866 475.817 688.295 475.373 688.836 475.056C689.387 474.739 690.003 474.58 690.684 474.58C691.366 474.58 691.977 474.739 692.518 475.056C693.06 475.373 693.484 475.817 693.792 476.386C694.1 476.946 694.254 477.59 694.254 478.318L694.24 478.626ZM690.684 475.434C689.975 475.434 689.378 475.663 688.892 476.12C688.416 476.568 688.146 477.156 688.08 477.884H693.302C693.237 477.156 692.962 476.568 692.476 476.12C692 475.663 691.403 475.434 690.684 475.434ZM700.03 474.58C700.954 474.58 701.686 474.851 702.228 475.392C702.778 475.924 703.054 476.703 703.054 477.73V482H702.06V477.828C702.06 477.063 701.868 476.479 701.486 476.078C701.103 475.677 700.557 475.476 699.848 475.476C699.054 475.476 698.424 475.714 697.958 476.19C697.5 476.657 697.272 477.305 697.272 478.136V482H696.278V474.636H697.23V475.994C697.5 475.546 697.874 475.201 698.35 474.958C698.835 474.706 699.395 474.58 700.03 474.58ZM712.388 474.636V482H711.436V480.656C711.175 481.104 710.816 481.454 710.358 481.706C709.901 481.949 709.378 482.07 708.79 482.07C707.829 482.07 707.068 481.804 706.508 481.272C705.958 480.731 705.682 479.942 705.682 478.906V474.636H706.676V478.808C706.676 479.583 706.868 480.171 707.25 480.572C707.633 480.973 708.179 481.174 708.888 481.174C709.663 481.174 710.274 480.941 710.722 480.474C711.17 479.998 711.394 479.34 711.394 478.5V474.636H712.388ZM725.248 478.626H719.088C719.144 479.391 719.438 480.012 719.97 480.488C720.502 480.955 721.174 481.188 721.986 481.188C722.444 481.188 722.864 481.109 723.246 480.95C723.629 480.782 723.96 480.539 724.24 480.222L724.8 480.866C724.474 481.258 724.063 481.557 723.568 481.762C723.083 481.967 722.546 482.07 721.958 482.07C721.202 482.07 720.53 481.911 719.942 481.594C719.364 481.267 718.911 480.819 718.584 480.25C718.258 479.681 718.094 479.037 718.094 478.318C718.094 477.599 718.248 476.955 718.556 476.386C718.874 475.817 719.303 475.373 719.844 475.056C720.395 474.739 721.011 474.58 721.692 474.58C722.374 474.58 722.985 474.739 723.526 475.056C724.068 475.373 724.492 475.817 724.8 476.386C725.108 476.946 725.262 477.59 725.262 478.318L725.248 478.626ZM721.692 475.434C720.983 475.434 720.386 475.663 719.9 476.12C719.424 476.568 719.154 477.156 719.088 477.884H724.31C724.245 477.156 723.97 476.568 723.484 476.12C723.008 475.663 722.411 475.434 721.692 475.434ZM729.259 482.07C728.662 482.07 728.088 481.986 727.537 481.818C726.996 481.641 726.571 481.421 726.263 481.16L726.711 480.376C727.019 480.619 727.407 480.819 727.873 480.978C728.34 481.127 728.825 481.202 729.329 481.202C730.001 481.202 730.496 481.099 730.813 480.894C731.14 480.679 731.303 480.381 731.303 479.998C731.303 479.727 731.215 479.517 731.037 479.368C730.86 479.209 730.636 479.093 730.365 479.018C730.095 478.934 729.735 478.855 729.287 478.78C728.69 478.668 728.209 478.556 727.845 478.444C727.481 478.323 727.169 478.122 726.907 477.842C726.655 477.562 726.529 477.175 726.529 476.68C726.529 476.064 726.786 475.56 727.299 475.168C727.813 474.776 728.527 474.58 729.441 474.58C729.917 474.58 730.393 474.645 730.869 474.776C731.345 474.897 731.737 475.061 732.045 475.266L731.611 476.064C731.005 475.644 730.281 475.434 729.441 475.434C728.807 475.434 728.326 475.546 727.999 475.77C727.682 475.994 727.523 476.288 727.523 476.652C727.523 476.932 727.612 477.156 727.789 477.324C727.976 477.492 728.205 477.618 728.475 477.702C728.746 477.777 729.119 477.856 729.595 477.94C730.183 478.052 730.655 478.164 731.009 478.276C731.364 478.388 731.667 478.579 731.919 478.85C732.171 479.121 732.297 479.494 732.297 479.97C732.297 480.614 732.027 481.127 731.485 481.51C730.953 481.883 730.211 482.07 729.259 482.07ZM738.013 481.552C737.826 481.72 737.593 481.851 737.313 481.944C737.042 482.028 736.758 482.07 736.459 482.07C735.768 482.07 735.236 481.883 734.863 481.51C734.49 481.137 734.303 480.609 734.303 479.928V475.476H732.987V474.636H734.303V473.026H735.297V474.636H737.537V475.476H735.297V479.872C735.297 480.311 735.404 480.647 735.619 480.88C735.843 481.104 736.16 481.216 736.571 481.216C736.776 481.216 736.972 481.183 737.159 481.118C737.355 481.053 737.523 480.959 737.663 480.838L738.013 481.552ZM750.207 471.612V482H749.255V480.544C748.956 481.039 748.559 481.417 748.065 481.678C747.579 481.939 747.029 482.07 746.413 482.07C745.722 482.07 745.097 481.911 744.537 481.594C743.977 481.277 743.538 480.833 743.221 480.264C742.903 479.695 742.745 479.046 742.745 478.318C742.745 477.59 742.903 476.941 743.221 476.372C743.538 475.803 743.977 475.364 744.537 475.056C745.097 474.739 745.722 474.58 746.413 474.58C747.01 474.58 747.547 474.706 748.023 474.958C748.508 475.201 748.905 475.56 749.213 476.036V471.612H750.207ZM746.497 481.188C747.01 481.188 747.472 481.071 747.883 480.838C748.303 480.595 748.629 480.255 748.863 479.816C749.105 479.377 749.227 478.878 749.227 478.318C749.227 477.758 749.105 477.259 748.863 476.82C748.629 476.381 748.303 476.045 747.883 475.812C747.472 475.569 747.01 475.448 746.497 475.448C745.974 475.448 745.503 475.569 745.083 475.812C744.672 476.045 744.345 476.381 744.103 476.82C743.869 477.259 743.753 477.758 743.753 478.318C743.753 478.878 743.869 479.377 744.103 479.816C744.345 480.255 744.672 480.595 745.083 480.838C745.503 481.071 745.974 481.188 746.497 481.188ZM759.387 478.626H753.227C753.283 479.391 753.577 480.012 754.109 480.488C754.641 480.955 755.313 481.188 756.125 481.188C756.582 481.188 757.002 481.109 757.385 480.95C757.768 480.782 758.099 480.539 758.379 480.222L758.939 480.866C758.612 481.258 758.202 481.557 757.707 481.762C757.222 481.967 756.685 482.07 756.097 482.07C755.341 482.07 754.669 481.911 754.081 481.594C753.502 481.267 753.05 480.819 752.723 480.25C752.396 479.681 752.233 479.037 752.233 478.318C752.233 477.599 752.387 476.955 752.695 476.386C753.012 475.817 753.442 475.373 753.983 475.056C754.534 474.739 755.15 474.58 755.831 474.58C756.512 474.58 757.124 474.739 757.665 475.056C758.206 475.373 758.631 475.817 758.939 476.386C759.247 476.946 759.401 477.59 759.401 478.318L759.387 478.626ZM755.831 475.434C755.122 475.434 754.524 475.663 754.039 476.12C753.563 476.568 753.292 477.156 753.227 477.884H758.449C758.384 477.156 758.108 476.568 757.623 476.12C757.147 475.663 756.55 475.434 755.831 475.434ZM756.839 471.752H758.169L755.901 473.488H754.921L756.839 471.752ZM768.144 471.612V482H767.192V480.544C766.893 481.039 766.497 481.417 766.002 481.678C765.517 481.939 764.966 482.07 764.35 482.07C763.659 482.07 763.034 481.911 762.474 481.594C761.914 481.277 761.475 480.833 761.158 480.264C760.841 479.695 760.682 479.046 760.682 478.318C760.682 477.59 760.841 476.941 761.158 476.372C761.475 475.803 761.914 475.364 762.474 475.056C763.034 474.739 763.659 474.58 764.35 474.58C764.947 474.58 765.484 474.706 765.96 474.958C766.445 475.201 766.842 475.56 767.15 476.036V471.612H768.144ZM764.434 481.188C764.947 481.188 765.409 481.071 765.82 480.838C766.24 480.595 766.567 480.255 766.8 479.816C767.043 479.377 767.164 478.878 767.164 478.318C767.164 477.758 767.043 477.259 766.8 476.82C766.567 476.381 766.24 476.045 765.82 475.812C765.409 475.569 764.947 475.448 764.434 475.448C763.911 475.448 763.44 475.569 763.02 475.812C762.609 476.045 762.283 476.381 762.04 476.82C761.807 477.259 761.69 477.758 761.69 478.318C761.69 478.878 761.807 479.377 762.04 479.816C762.283 480.255 762.609 480.595 763.02 480.838C763.44 481.071 763.911 481.188 764.434 481.188ZM770.912 474.636H771.906V482H770.912V474.636ZM771.416 473.026C771.211 473.026 771.038 472.956 770.898 472.816C770.758 472.676 770.688 472.508 770.688 472.312C770.688 472.125 770.758 471.962 770.898 471.822C771.038 471.682 771.211 471.612 771.416 471.612C771.622 471.612 771.794 471.682 771.934 471.822C772.074 471.953 772.144 472.111 772.144 472.298C772.144 472.503 772.074 472.676 771.934 472.816C771.794 472.956 771.622 473.026 771.416 473.026ZM781.084 478.626H774.924C774.98 479.391 775.274 480.012 775.806 480.488C776.338 480.955 777.01 481.188 777.822 481.188C778.279 481.188 778.699 481.109 779.082 480.95C779.465 480.782 779.796 480.539 780.076 480.222L780.636 480.866C780.309 481.258 779.899 481.557 779.404 481.762C778.919 481.967 778.382 482.07 777.794 482.07C777.038 482.07 776.366 481.911 775.778 481.594C775.199 481.267 774.747 480.819 774.42 480.25C774.093 479.681 773.93 479.037 773.93 478.318C773.93 477.599 774.084 476.955 774.392 476.386C774.709 475.817 775.139 475.373 775.68 475.056C776.231 474.739 776.847 474.58 777.528 474.58C778.209 474.58 778.821 474.739 779.362 475.056C779.903 475.373 780.328 475.817 780.636 476.386C780.944 476.946 781.098 477.59 781.098 478.318L781.084 478.626ZM777.528 475.434C776.819 475.434 776.221 475.663 775.736 476.12C775.26 476.568 774.989 477.156 774.924 477.884H780.146C780.081 477.156 779.805 476.568 779.32 476.12C778.844 475.663 778.247 475.434 777.528 475.434ZM778.536 471.752H779.866L777.598 473.488H776.618L778.536 471.752ZM790.579 474.58C791.27 474.58 791.895 474.739 792.455 475.056C793.015 475.364 793.454 475.803 793.771 476.372C794.089 476.941 794.247 477.59 794.247 478.318C794.247 479.046 794.089 479.695 793.771 480.264C793.454 480.833 793.015 481.277 792.455 481.594C791.895 481.911 791.27 482.07 790.579 482.07C789.963 482.07 789.408 481.939 788.913 481.678C788.428 481.417 788.036 481.039 787.737 480.544V482H786.785V471.612H787.779V476.036C788.087 475.56 788.479 475.201 788.955 474.958C789.441 474.706 789.982 474.58 790.579 474.58ZM790.509 481.188C791.023 481.188 791.489 481.071 791.909 480.838C792.329 480.595 792.656 480.255 792.889 479.816C793.132 479.377 793.253 478.878 793.253 478.318C793.253 477.758 793.132 477.259 792.889 476.82C792.656 476.381 792.329 476.045 791.909 475.812C791.489 475.569 791.023 475.448 790.509 475.448C789.987 475.448 789.515 475.569 789.095 475.812C788.685 476.045 788.358 476.381 788.115 476.82C787.882 477.259 787.765 477.758 787.765 478.318C787.765 478.878 787.882 479.377 788.115 479.816C788.358 480.255 788.685 480.595 789.095 480.838C789.515 481.071 789.987 481.188 790.509 481.188ZM796.274 471.612H797.268V482H796.274V471.612ZM802.609 474.58C803.571 474.58 804.308 474.823 804.821 475.308C805.335 475.784 805.591 476.493 805.591 477.436V482H804.639V480.852C804.415 481.235 804.084 481.533 803.645 481.748C803.216 481.963 802.703 482.07 802.105 482.07C801.284 482.07 800.631 481.874 800.145 481.482C799.66 481.09 799.417 480.572 799.417 479.928C799.417 479.303 799.641 478.799 800.089 478.416C800.547 478.033 801.27 477.842 802.259 477.842H804.597V477.394C804.597 476.759 804.42 476.279 804.065 475.952C803.711 475.616 803.193 475.448 802.511 475.448C802.045 475.448 801.597 475.527 801.167 475.686C800.738 475.835 800.369 476.045 800.061 476.316L799.613 475.574C799.987 475.257 800.435 475.014 800.957 474.846C801.48 474.669 802.031 474.58 802.609 474.58ZM802.259 481.286C802.819 481.286 803.3 481.16 803.701 480.908C804.103 480.647 804.401 480.273 804.597 479.788V478.584H802.287C801.027 478.584 800.397 479.023 800.397 479.9C800.397 480.329 800.561 480.67 800.887 480.922C801.214 481.165 801.671 481.286 802.259 481.286ZM812.085 474.58C812.776 474.58 813.401 474.739 813.961 475.056C814.521 475.364 814.96 475.803 815.277 476.372C815.595 476.941 815.753 477.59 815.753 478.318C815.753 479.046 815.595 479.695 815.277 480.264C814.96 480.833 814.521 481.277 813.961 481.594C813.401 481.911 812.776 482.07 812.085 482.07C811.469 482.07 810.914 481.939 810.419 481.678C809.934 481.417 809.542 481.039 809.243 480.544V482H808.291V471.612H809.285V476.036C809.593 475.56 809.985 475.201 810.461 474.958C810.947 474.706 811.488 474.58 812.085 474.58ZM812.015 481.188C812.529 481.188 812.995 481.071 813.415 480.838C813.835 480.595 814.162 480.255 814.395 479.816C814.638 479.377 814.759 478.878 814.759 478.318C814.759 477.758 814.638 477.259 814.395 476.82C814.162 476.381 813.835 476.045 813.415 475.812C812.995 475.569 812.529 475.448 812.015 475.448C811.493 475.448 811.021 475.569 810.601 475.812C810.191 476.045 809.864 476.381 809.621 476.82C809.388 477.259 809.271 477.758 809.271 478.318C809.271 478.878 809.388 479.377 809.621 479.816C809.864 480.255 810.191 480.595 810.601 480.838C811.021 481.071 811.493 481.188 812.015 481.188ZM817.78 471.612H818.774V482H817.78V471.612ZM824.115 474.58C825.077 474.58 825.814 474.823 826.327 475.308C826.841 475.784 827.097 476.493 827.097 477.436V482H826.145V480.852C825.921 481.235 825.59 481.533 825.151 481.748C824.722 481.963 824.209 482.07 823.611 482.07C822.79 482.07 822.137 481.874 821.651 481.482C821.166 481.09 820.923 480.572 820.923 479.928C820.923 479.303 821.147 478.799 821.595 478.416C822.053 478.033 822.776 477.842 823.765 477.842H826.103V477.394C826.103 476.759 825.926 476.279 825.571 475.952C825.217 475.616 824.699 475.448 824.017 475.448C823.551 475.448 823.103 475.527 822.673 475.686C822.244 475.835 821.875 476.045 821.567 476.316L821.119 475.574C821.493 475.257 821.941 475.014 822.463 474.846C822.986 474.669 823.537 474.58 824.115 474.58ZM823.765 481.286C824.325 481.286 824.806 481.16 825.207 480.908C825.609 480.647 825.907 480.273 826.103 479.788V478.584H823.793C822.533 478.584 821.903 479.023 821.903 479.9C821.903 480.329 822.067 480.67 822.393 480.922C822.72 481.165 823.177 481.286 823.765 481.286Z" fill="white"/>
<rect x="789" y="561" width="192" height="50" rx="10" fill="#FFA077"/>
<path d="M810.942 590L809.052 587.27H808.94H806.966V590H804.698V580.2H808.94C809.808 580.2 810.559 580.345 811.194 580.634C811.838 580.923 812.333 581.334 812.678 581.866C813.023 582.398 813.196 583.028 813.196 583.756C813.196 584.484 813.019 585.114 812.664 585.646C812.319 586.169 811.824 586.57 811.18 586.85L813.378 590H810.942ZM810.9 583.756C810.9 583.205 810.723 582.785 810.368 582.496C810.013 582.197 809.495 582.048 808.814 582.048H806.966V585.464H808.814C809.495 585.464 810.013 585.315 810.368 585.016C810.723 584.717 810.9 584.297 810.9 583.756ZM822.217 586.262C822.217 586.29 822.203 586.486 822.175 586.85H816.477C816.58 587.317 816.822 587.685 817.205 587.956C817.588 588.227 818.064 588.362 818.633 588.362C819.025 588.362 819.37 588.306 819.669 588.194C819.977 588.073 820.262 587.886 820.523 587.634L821.685 588.894C820.976 589.706 819.94 590.112 818.577 590.112C817.728 590.112 816.976 589.949 816.323 589.622C815.67 589.286 815.166 588.824 814.811 588.236C814.456 587.648 814.279 586.981 814.279 586.234C814.279 585.497 814.452 584.834 814.797 584.246C815.152 583.649 815.632 583.187 816.239 582.86C816.855 582.524 817.541 582.356 818.297 582.356C819.034 582.356 819.702 582.515 820.299 582.832C820.896 583.149 821.363 583.607 821.699 584.204C822.044 584.792 822.217 585.478 822.217 586.262ZM818.311 584.008C817.816 584.008 817.401 584.148 817.065 584.428C816.729 584.708 816.524 585.091 816.449 585.576H820.159C820.084 585.1 819.879 584.722 819.543 584.442C819.207 584.153 818.796 584.008 818.311 584.008ZM827.311 590.112C826.508 590.112 825.785 589.949 825.141 589.622C824.506 589.286 824.007 588.824 823.643 588.236C823.288 587.648 823.111 586.981 823.111 586.234C823.111 585.487 823.288 584.82 823.643 584.232C824.007 583.644 824.506 583.187 825.141 582.86C825.785 582.524 826.508 582.356 827.311 582.356C828.104 582.356 828.795 582.524 829.383 582.86C829.98 583.187 830.414 583.658 830.685 584.274L828.991 585.184C828.599 584.493 828.034 584.148 827.297 584.148C826.728 584.148 826.256 584.335 825.883 584.708C825.51 585.081 825.323 585.59 825.323 586.234C825.323 586.878 825.51 587.387 825.883 587.76C826.256 588.133 826.728 588.32 827.297 588.32C828.044 588.32 828.608 587.975 828.991 587.284L830.685 588.208C830.414 588.805 829.98 589.272 829.383 589.608C828.795 589.944 828.104 590.112 827.311 590.112ZM839.225 586.262C839.225 586.29 839.211 586.486 839.183 586.85H833.485C833.588 587.317 833.83 587.685 834.213 587.956C834.596 588.227 835.072 588.362 835.641 588.362C836.033 588.362 836.378 588.306 836.677 588.194C836.985 588.073 837.27 587.886 837.531 587.634L838.693 588.894C837.984 589.706 836.948 590.112 835.585 590.112C834.736 590.112 833.984 589.949 833.331 589.622C832.678 589.286 832.174 588.824 831.819 588.236C831.464 587.648 831.287 586.981 831.287 586.234C831.287 585.497 831.46 584.834 831.805 584.246C832.16 583.649 832.64 583.187 833.247 582.86C833.863 582.524 834.549 582.356 835.305 582.356C836.042 582.356 836.71 582.515 837.307 582.832C837.904 583.149 838.371 583.607 838.707 584.204C839.052 584.792 839.225 585.478 839.225 586.262ZM835.319 584.008C834.824 584.008 834.409 584.148 834.073 584.428C833.737 584.708 833.532 585.091 833.457 585.576H837.167C837.092 585.1 836.887 584.722 836.551 584.442C836.215 584.153 835.804 584.008 835.319 584.008ZM848.018 582.468L844.84 590H842.586L839.422 582.468H841.676L843.762 587.592L845.918 582.468H848.018ZM852.288 590.112C851.495 590.112 850.781 589.949 850.146 589.622C849.521 589.286 849.031 588.824 848.676 588.236C848.322 587.648 848.144 586.981 848.144 586.234C848.144 585.487 848.322 584.82 848.676 584.232C849.031 583.644 849.521 583.187 850.146 582.86C850.781 582.524 851.495 582.356 852.288 582.356C853.082 582.356 853.791 582.524 854.416 582.86C855.042 583.187 855.532 583.644 855.886 584.232C856.241 584.82 856.418 585.487 856.418 586.234C856.418 586.981 856.241 587.648 855.886 588.236C855.532 588.824 855.042 589.286 854.416 589.622C853.791 589.949 853.082 590.112 852.288 590.112ZM852.288 588.32C852.848 588.32 853.306 588.133 853.66 587.76C854.024 587.377 854.206 586.869 854.206 586.234C854.206 585.599 854.024 585.095 853.66 584.722C853.306 584.339 852.848 584.148 852.288 584.148C851.728 584.148 851.266 584.339 850.902 584.722C850.538 585.095 850.356 585.599 850.356 586.234C850.356 586.869 850.538 587.377 850.902 587.76C851.266 588.133 851.728 588.32 852.288 588.32ZM857.878 582.468H860.062V590H857.878V582.468ZM858.97 581.418C858.569 581.418 858.242 581.301 857.99 581.068C857.738 580.835 857.612 580.545 857.612 580.2C857.612 579.855 857.738 579.565 857.99 579.332C858.242 579.099 858.569 578.982 858.97 578.982C859.371 578.982 859.698 579.094 859.95 579.318C860.202 579.542 860.328 579.822 860.328 580.158C860.328 580.522 860.202 580.825 859.95 581.068C859.698 581.301 859.371 581.418 858.97 581.418ZM864.175 583.462C864.436 583.098 864.786 582.823 865.225 582.636C865.673 582.449 866.186 582.356 866.765 582.356V584.372C866.522 584.353 866.359 584.344 866.275 584.344C865.65 584.344 865.16 584.521 864.805 584.876C864.45 585.221 864.273 585.744 864.273 586.444V590H862.089V582.468H864.175V583.462ZM872.083 579.612H874.267V590H872.083V579.612ZM879.332 582.356C880.499 582.356 881.395 582.636 882.02 583.196C882.645 583.747 882.958 584.582 882.958 585.702V590H880.914V589.062C880.503 589.762 879.738 590.112 878.618 590.112C878.039 590.112 877.535 590.014 877.106 589.818C876.686 589.622 876.364 589.351 876.14 589.006C875.916 588.661 875.804 588.269 875.804 587.83C875.804 587.13 876.065 586.579 876.588 586.178C877.12 585.777 877.937 585.576 879.038 585.576H880.774C880.774 585.1 880.629 584.736 880.34 584.484C880.051 584.223 879.617 584.092 879.038 584.092C878.637 584.092 878.24 584.157 877.848 584.288C877.465 584.409 877.139 584.577 876.868 584.792L876.084 583.266C876.495 582.977 876.985 582.753 877.554 582.594C878.133 582.435 878.725 582.356 879.332 582.356ZM879.164 588.642C879.537 588.642 879.869 588.558 880.158 588.39C880.447 588.213 880.653 587.956 880.774 587.62V586.85H879.276C878.38 586.85 877.932 587.144 877.932 587.732C877.932 588.012 878.039 588.236 878.254 588.404C878.478 588.563 878.781 588.642 879.164 588.642ZM893.478 582.356C894.411 582.356 895.162 582.636 895.732 583.196C896.31 583.756 896.6 584.587 896.6 585.688V590H894.416V586.024C894.416 585.427 894.285 584.983 894.024 584.694C893.762 584.395 893.384 584.246 892.89 584.246C892.339 584.246 891.9 584.419 891.574 584.764C891.247 585.1 891.084 585.604 891.084 586.276V590H888.9V582.468H890.986V583.35C891.275 583.033 891.634 582.79 892.064 582.622C892.493 582.445 892.964 582.356 893.478 582.356ZM906.039 586.262C906.039 586.29 906.025 586.486 905.997 586.85H900.299C900.402 587.317 900.645 587.685 901.027 587.956C901.41 588.227 901.886 588.362 902.455 588.362C902.847 588.362 903.193 588.306 903.491 588.194C903.799 588.073 904.084 587.886 904.345 587.634L905.507 588.894C904.798 589.706 903.762 590.112 902.399 590.112C901.55 590.112 900.799 589.949 900.145 589.622C899.492 589.286 898.988 588.824 898.633 588.236C898.279 587.648 898.101 586.981 898.101 586.234C898.101 585.497 898.274 584.834 898.619 584.246C898.974 583.649 899.455 583.187 900.061 582.86C900.677 582.524 901.363 582.356 902.119 582.356C902.857 582.356 903.524 582.515 904.121 582.832C904.719 583.149 905.185 583.607 905.521 584.204C905.867 584.792 906.039 585.478 906.039 586.262ZM902.133 584.008C901.639 584.008 901.223 584.148 900.887 584.428C900.551 584.708 900.346 585.091 900.271 585.576H903.981C903.907 585.1 903.701 584.722 903.365 584.442C903.029 584.153 902.619 584.008 902.133 584.008ZM919.453 582.468L916.723 590H914.623L912.929 585.324L911.179 590H909.079L906.363 582.468H908.421L910.199 587.564L912.047 582.468H913.895L915.687 587.564L917.521 582.468H919.453ZM922.893 590.112C922.267 590.112 921.656 590.037 921.059 589.888C920.461 589.729 919.985 589.533 919.631 589.3L920.359 587.732C920.695 587.947 921.101 588.124 921.577 588.264C922.053 588.395 922.519 588.46 922.977 588.46C923.901 588.46 924.363 588.231 924.363 587.774C924.363 587.559 924.237 587.405 923.985 587.312C923.733 587.219 923.345 587.139 922.823 587.074C922.207 586.981 921.698 586.873 921.297 586.752C920.895 586.631 920.545 586.416 920.247 586.108C919.957 585.8 919.813 585.361 919.813 584.792C919.813 584.316 919.948 583.896 920.219 583.532C920.499 583.159 920.9 582.869 921.423 582.664C921.955 582.459 922.58 582.356 923.299 582.356C923.831 582.356 924.358 582.417 924.881 582.538C925.413 582.65 925.851 582.809 926.197 583.014L925.469 584.568C924.806 584.195 924.083 584.008 923.299 584.008C922.832 584.008 922.482 584.073 922.249 584.204C922.015 584.335 921.899 584.503 921.899 584.708C921.899 584.941 922.025 585.105 922.277 585.198C922.529 585.291 922.93 585.38 923.481 585.464C924.097 585.567 924.601 585.679 924.993 585.8C925.385 585.912 925.725 586.122 926.015 586.43C926.304 586.738 926.449 587.167 926.449 587.718C926.449 588.185 926.309 588.6 926.029 588.964C925.749 589.328 925.338 589.613 924.797 589.818C924.265 590.014 923.63 590.112 922.893 590.112ZM927.796 579.612H929.98V590H927.796V579.612ZM939.385 586.262C939.385 586.29 939.371 586.486 939.343 586.85H933.645C933.748 587.317 933.99 587.685 934.373 587.956C934.756 588.227 935.232 588.362 935.801 588.362C936.193 588.362 936.538 588.306 936.837 588.194C937.145 588.073 937.43 587.886 937.691 587.634L938.853 588.894C938.144 589.706 937.108 590.112 935.745 590.112C934.896 590.112 934.144 589.949 933.491 589.622C932.838 589.286 932.334 588.824 931.979 588.236C931.624 587.648 931.447 586.981 931.447 586.234C931.447 585.497 931.62 584.834 931.965 584.246C932.32 583.649 932.8 583.187 933.407 582.86C934.023 582.524 934.709 582.356 935.465 582.356C936.202 582.356 936.87 582.515 937.467 582.832C938.064 583.149 938.531 583.607 938.867 584.204C939.212 584.792 939.385 585.478 939.385 586.262ZM935.479 584.008C934.984 584.008 934.569 584.148 934.233 584.428C933.897 584.708 933.692 585.091 933.617 585.576H937.327C937.252 585.1 937.047 584.722 936.711 584.442C936.375 584.153 935.964 584.008 935.479 584.008ZM945.697 589.636C945.482 589.795 945.216 589.916 944.899 590C944.591 590.075 944.264 590.112 943.919 590.112C943.023 590.112 942.328 589.883 941.833 589.426C941.348 588.969 941.105 588.297 941.105 587.41V584.316H939.943V582.636H941.105V580.802H943.289V582.636H945.165V584.316H943.289V587.382C943.289 587.699 943.368 587.947 943.527 588.124C943.695 588.292 943.928 588.376 944.227 588.376C944.572 588.376 944.866 588.283 945.109 588.096L945.697 589.636ZM951.617 589.636C951.402 589.795 951.136 589.916 950.819 590C950.511 590.075 950.184 590.112 949.839 590.112C948.943 590.112 948.248 589.883 947.753 589.426C947.268 588.969 947.025 588.297 947.025 587.41V584.316H945.863V582.636H947.025V580.802H949.209V582.636H951.085V584.316H949.209V587.382C949.209 587.699 949.288 587.947 949.447 588.124C949.615 588.292 949.848 588.376 950.147 588.376C950.492 588.376 950.786 588.283 951.029 588.096L951.617 589.636ZM959.989 586.262C959.989 586.29 959.975 586.486 959.947 586.85H954.249C954.351 587.317 954.594 587.685 954.977 587.956C955.359 588.227 955.835 588.362 956.405 588.362C956.797 588.362 957.142 588.306 957.441 588.194C957.749 588.073 958.033 587.886 958.295 587.634L959.457 588.894C958.747 589.706 957.711 590.112 956.349 590.112C955.499 590.112 954.748 589.949 954.095 589.622C953.441 589.286 952.937 588.824 952.583 588.236C952.228 587.648 952.051 586.981 952.051 586.234C952.051 585.497 952.223 584.834 952.569 584.246C952.923 583.649 953.404 583.187 954.011 582.86C954.627 582.524 955.313 582.356 956.069 582.356C956.806 582.356 957.473 582.515 958.071 582.832C958.668 583.149 959.135 583.607 959.471 584.204C959.816 584.792 959.989 585.478 959.989 586.262ZM956.083 584.008C955.588 584.008 955.173 584.148 954.837 584.428C954.501 584.708 954.295 585.091 954.221 585.576H957.931C957.856 585.1 957.651 584.722 957.315 584.442C956.979 584.153 956.568 584.008 956.083 584.008ZM963.529 583.462C963.79 583.098 964.14 582.823 964.579 582.636C965.027 582.449 965.54 582.356 966.119 582.356V584.372C965.876 584.353 965.713 584.344 965.629 584.344C965.003 584.344 964.513 584.521 964.159 584.876C963.804 585.221 963.627 585.744 963.627 586.444V590H961.443V582.468H963.529V583.462Z" fill="white"/>
<rect x="514.5" y="562.5" width="255" height="49" rx="9.5" fill="white" stroke="#E5E5E5"/>
<path d="M542.744 581.2L538.404 591H537.382L533.042 581.2H534.162L537.914 589.712L541.694 581.2H542.744ZM546.406 591.07C545.696 591.07 545.057 590.911 544.488 590.594C543.918 590.267 543.47 589.819 543.144 589.25C542.817 588.681 542.654 588.037 542.654 587.318C542.654 586.599 542.817 585.955 543.144 585.386C543.47 584.817 543.918 584.373 544.488 584.056C545.057 583.739 545.696 583.58 546.406 583.58C547.115 583.58 547.754 583.739 548.324 584.056C548.893 584.373 549.336 584.817 549.654 585.386C549.98 585.955 550.144 586.599 550.144 587.318C550.144 588.037 549.98 588.681 549.654 589.25C549.336 589.819 548.893 590.267 548.324 590.594C547.754 590.911 547.115 591.07 546.406 591.07ZM546.406 590.188C546.928 590.188 547.395 590.071 547.806 589.838C548.226 589.595 548.552 589.255 548.786 588.816C549.019 588.377 549.136 587.878 549.136 587.318C549.136 586.758 549.019 586.259 548.786 585.82C548.552 585.381 548.226 585.045 547.806 584.812C547.395 584.569 546.928 584.448 546.406 584.448C545.883 584.448 545.412 584.569 544.992 584.812C544.581 585.045 544.254 585.381 544.012 585.82C543.778 586.259 543.662 586.758 543.662 587.318C543.662 587.878 543.778 588.377 544.012 588.816C544.254 589.255 544.581 589.595 544.992 589.838C545.412 590.071 545.883 590.188 546.406 590.188ZM556.051 590.552C555.864 590.72 555.631 590.851 555.351 590.944C555.08 591.028 554.796 591.07 554.497 591.07C553.806 591.07 553.274 590.883 552.901 590.51C552.528 590.137 552.341 589.609 552.341 588.928V584.476H551.025V583.636H552.341V582.026H553.335V583.636H555.575V584.476H553.335V588.872C553.335 589.311 553.442 589.647 553.657 589.88C553.881 590.104 554.198 590.216 554.609 590.216C554.814 590.216 555.01 590.183 555.197 590.118C555.393 590.053 555.561 589.959 555.701 589.838L556.051 590.552ZM558.813 585.078C559.046 584.583 559.391 584.21 559.849 583.958C560.315 583.706 560.889 583.58 561.571 583.58V584.546L561.333 584.532C560.558 584.532 559.951 584.77 559.513 585.246C559.074 585.722 558.855 586.389 558.855 587.248V591H557.861V583.636H558.813V585.078ZM569.714 587.626H563.554C563.61 588.391 563.904 589.012 564.436 589.488C564.968 589.955 565.64 590.188 566.452 590.188C566.909 590.188 567.329 590.109 567.712 589.95C568.095 589.782 568.426 589.539 568.706 589.222L569.266 589.866C568.939 590.258 568.529 590.557 568.034 590.762C567.549 590.967 567.012 591.07 566.424 591.07C565.668 591.07 564.996 590.911 564.408 590.594C563.829 590.267 563.377 589.819 563.05 589.25C562.723 588.681 562.56 588.037 562.56 587.318C562.56 586.599 562.714 585.955 563.022 585.386C563.339 584.817 563.769 584.373 564.31 584.056C564.861 583.739 565.477 583.58 566.158 583.58C566.839 583.58 567.451 583.739 567.992 584.056C568.533 584.373 568.958 584.817 569.266 585.386C569.574 585.946 569.728 586.59 569.728 587.318L569.714 587.626ZM566.158 584.434C565.449 584.434 564.851 584.663 564.366 585.12C563.89 585.568 563.619 586.156 563.554 586.884H568.776C568.711 586.156 568.435 585.568 567.95 585.12C567.474 584.663 566.877 584.434 566.158 584.434ZM581.827 587.626H575.667C575.723 588.391 576.017 589.012 576.549 589.488C577.081 589.955 577.753 590.188 578.565 590.188C579.023 590.188 579.443 590.109 579.825 589.95C580.208 589.782 580.539 589.539 580.819 589.222L581.379 589.866C581.053 590.258 580.642 590.557 580.147 590.762C579.662 590.967 579.125 591.07 578.537 591.07C577.781 591.07 577.109 590.911 576.521 590.594C575.943 590.267 575.49 589.819 575.163 589.25C574.837 588.681 574.673 588.037 574.673 587.318C574.673 586.599 574.827 585.955 575.135 585.386C575.453 584.817 575.882 584.373 576.423 584.056C576.974 583.739 577.59 583.58 578.271 583.58C578.953 583.58 579.564 583.739 580.105 584.056C580.647 584.373 581.071 584.817 581.379 585.386C581.687 585.946 581.841 586.59 581.841 587.318L581.827 587.626ZM578.271 584.434C577.562 584.434 576.965 584.663 576.479 585.12C576.003 585.568 575.733 586.156 575.667 586.884H580.889C580.824 586.156 580.549 585.568 580.063 585.12C579.587 584.663 578.99 584.434 578.271 584.434ZM593.049 583.58C593.973 583.58 594.696 583.846 595.219 584.378C595.751 584.91 596.017 585.694 596.017 586.73V591H595.023V586.828C595.023 586.063 594.836 585.479 594.463 585.078C594.099 584.677 593.581 584.476 592.909 584.476C592.143 584.476 591.541 584.714 591.103 585.19C590.664 585.657 590.445 586.305 590.445 587.136V591H589.451V586.828C589.451 586.063 589.264 585.479 588.891 585.078C588.527 584.677 588.004 584.476 587.323 584.476C586.567 584.476 585.965 584.714 585.517 585.19C585.078 585.657 584.859 586.305 584.859 587.136V591H583.865V583.636H584.817V584.98C585.078 584.532 585.442 584.187 585.909 583.944C586.375 583.701 586.912 583.58 587.519 583.58C588.135 583.58 588.667 583.711 589.115 583.972C589.572 584.233 589.913 584.621 590.137 585.134C590.407 584.649 590.795 584.271 591.299 584C591.812 583.72 592.395 583.58 593.049 583.58ZM601.288 583.58C602.25 583.58 602.987 583.823 603.5 584.308C604.014 584.784 604.27 585.493 604.27 586.436V591H603.318V589.852C603.094 590.235 602.763 590.533 602.324 590.748C601.895 590.963 601.382 591.07 600.784 591.07C599.963 591.07 599.31 590.874 598.824 590.482C598.339 590.09 598.096 589.572 598.096 588.928C598.096 588.303 598.32 587.799 598.768 587.416C599.226 587.033 599.949 586.842 600.938 586.842H603.276V586.394C603.276 585.759 603.099 585.279 602.744 584.952C602.39 584.616 601.872 584.448 601.19 584.448C600.724 584.448 600.276 584.527 599.846 584.686C599.417 584.835 599.048 585.045 598.74 585.316L598.292 584.574C598.666 584.257 599.114 584.014 599.636 583.846C600.159 583.669 600.71 583.58 601.288 583.58ZM600.938 590.286C601.498 590.286 601.979 590.16 602.38 589.908C602.782 589.647 603.08 589.273 603.276 588.788V587.584H600.966C599.706 587.584 599.076 588.023 599.076 588.9C599.076 589.329 599.24 589.67 599.566 589.922C599.893 590.165 600.35 590.286 600.938 590.286ZM606.97 583.636H607.964V591H606.97V583.636ZM607.474 582.026C607.269 582.026 607.096 581.956 606.956 581.816C606.816 581.676 606.746 581.508 606.746 581.312C606.746 581.125 606.816 580.962 606.956 580.822C607.096 580.682 607.269 580.612 607.474 580.612C607.679 580.612 607.852 580.682 607.992 580.822C608.132 580.953 608.202 581.111 608.202 581.298C608.202 581.503 608.132 581.676 607.992 581.816C607.852 581.956 607.679 582.026 607.474 582.026ZM610.73 580.612H611.724V591H610.73V580.612ZM621.948 583.58C622.638 583.58 623.264 583.739 623.824 584.056C624.384 584.364 624.822 584.803 625.14 585.372C625.457 585.941 625.616 586.59 625.616 587.318C625.616 588.055 625.457 588.709 625.14 589.278C624.822 589.847 624.384 590.291 623.824 590.608C623.273 590.916 622.648 591.07 621.948 591.07C621.35 591.07 620.809 590.949 620.324 590.706C619.848 590.454 619.456 590.09 619.148 589.614V593.716H618.154V583.636H619.106V585.092C619.404 584.607 619.796 584.233 620.282 583.972C620.776 583.711 621.332 583.58 621.948 583.58ZM621.878 590.188C622.391 590.188 622.858 590.071 623.278 589.838C623.698 589.595 624.024 589.255 624.258 588.816C624.5 588.377 624.622 587.878 624.622 587.318C624.622 586.758 624.5 586.263 624.258 585.834C624.024 585.395 623.698 585.055 623.278 584.812C622.858 584.569 622.391 584.448 621.878 584.448C621.355 584.448 620.884 584.569 620.464 584.812C620.053 585.055 619.726 585.395 619.484 585.834C619.25 586.263 619.134 586.758 619.134 587.318C619.134 587.878 619.25 588.377 619.484 588.816C619.726 589.255 620.053 589.595 620.464 589.838C620.884 590.071 621.355 590.188 621.878 590.188ZM628.594 585.078C628.827 584.583 629.173 584.21 629.63 583.958C630.097 583.706 630.671 583.58 631.352 583.58V584.546L631.114 584.532C630.339 584.532 629.733 584.77 629.294 585.246C628.855 585.722 628.636 586.389 628.636 587.248V591H627.642V583.636H628.594V585.078ZM636.093 591.07C635.384 591.07 634.745 590.911 634.175 590.594C633.606 590.267 633.158 589.819 632.831 589.25C632.505 588.681 632.341 588.037 632.341 587.318C632.341 586.599 632.505 585.955 632.831 585.386C633.158 584.817 633.606 584.373 634.175 584.056C634.745 583.739 635.384 583.58 636.093 583.58C636.803 583.58 637.442 583.739 638.011 584.056C638.581 584.373 639.024 584.817 639.341 585.386C639.668 585.955 639.831 586.599 639.831 587.318C639.831 588.037 639.668 588.681 639.341 589.25C639.024 589.819 638.581 590.267 638.011 590.594C637.442 590.911 636.803 591.07 636.093 591.07ZM636.093 590.188C636.616 590.188 637.083 590.071 637.493 589.838C637.913 589.595 638.24 589.255 638.473 588.816C638.707 588.377 638.823 587.878 638.823 587.318C638.823 586.758 638.707 586.259 638.473 585.82C638.24 585.381 637.913 585.045 637.493 584.812C637.083 584.569 636.616 584.448 636.093 584.448C635.571 584.448 635.099 584.569 634.679 584.812C634.269 585.045 633.942 585.381 633.699 585.82C633.466 586.259 633.349 586.758 633.349 587.318C633.349 587.878 633.466 588.377 633.699 588.816C633.942 589.255 634.269 589.595 634.679 589.838C635.099 590.071 635.571 590.188 636.093 590.188ZM644.297 581.382C643.867 581.382 643.541 581.499 643.317 581.732C643.102 581.965 642.995 582.311 642.995 582.768V583.636H645.263V584.476H643.023V591H642.029V584.476H640.713V583.636H642.029V582.726C642.029 582.054 642.22 581.522 642.603 581.13C642.995 580.738 643.545 580.542 644.255 580.542C644.535 580.542 644.805 580.584 645.067 580.668C645.328 580.743 645.547 580.855 645.725 581.004L645.389 581.746C645.099 581.503 644.735 581.382 644.297 581.382ZM652.894 587.626H646.734C646.79 588.391 647.084 589.012 647.616 589.488C648.148 589.955 648.82 590.188 649.632 590.188C650.089 590.188 650.509 590.109 650.892 589.95C651.274 589.782 651.606 589.539 651.886 589.222L652.446 589.866C652.119 590.258 651.708 590.557 651.214 590.762C650.728 590.967 650.192 591.07 649.604 591.07C648.848 591.07 648.176 590.911 647.588 590.594C647.009 590.267 646.556 589.819 646.23 589.25C645.903 588.681 645.74 588.037 645.74 587.318C645.74 586.599 645.894 585.955 646.202 585.386C646.519 584.817 646.948 584.373 647.49 584.056C648.04 583.739 648.656 583.58 649.338 583.58C650.019 583.58 650.63 583.739 651.172 584.056C651.713 584.373 652.138 584.817 652.446 585.386C652.754 585.946 652.908 586.59 652.908 587.318L652.894 587.626ZM649.338 584.434C648.628 584.434 648.031 584.663 647.546 585.12C647.07 585.568 646.799 586.156 646.734 586.884H651.956C651.89 586.156 651.615 585.568 651.13 585.12C650.654 584.663 650.056 584.434 649.338 584.434ZM656.905 591.07C656.308 591.07 655.734 590.986 655.183 590.818C654.642 590.641 654.217 590.421 653.909 590.16L654.357 589.376C654.665 589.619 655.052 589.819 655.519 589.978C655.986 590.127 656.471 590.202 656.975 590.202C657.647 590.202 658.142 590.099 658.459 589.894C658.786 589.679 658.949 589.381 658.949 588.998C658.949 588.727 658.86 588.517 658.683 588.368C658.506 588.209 658.282 588.093 658.011 588.018C657.74 587.934 657.381 587.855 656.933 587.78C656.336 587.668 655.855 587.556 655.491 587.444C655.127 587.323 654.814 587.122 654.553 586.842C654.301 586.562 654.175 586.175 654.175 585.68C654.175 585.064 654.432 584.56 654.945 584.168C655.458 583.776 656.172 583.58 657.087 583.58C657.563 583.58 658.039 583.645 658.515 583.776C658.991 583.897 659.383 584.061 659.691 584.266L659.257 585.064C658.65 584.644 657.927 584.434 657.087 584.434C656.452 584.434 655.972 584.546 655.645 584.77C655.328 584.994 655.169 585.288 655.169 585.652C655.169 585.932 655.258 586.156 655.435 586.324C655.622 586.492 655.85 586.618 656.121 586.702C656.392 586.777 656.765 586.856 657.241 586.94C657.829 587.052 658.3 587.164 658.655 587.276C659.01 587.388 659.313 587.579 659.565 587.85C659.817 588.121 659.943 588.494 659.943 588.97C659.943 589.614 659.672 590.127 659.131 590.51C658.599 590.883 657.857 591.07 656.905 591.07ZM663.755 591.07C663.157 591.07 662.583 590.986 662.033 590.818C661.491 590.641 661.067 590.421 660.759 590.16L661.207 589.376C661.515 589.619 661.902 589.819 662.369 589.978C662.835 590.127 663.321 590.202 663.825 590.202C664.497 590.202 664.991 590.099 665.309 589.894C665.635 589.679 665.799 589.381 665.799 588.998C665.799 588.727 665.71 588.517 665.533 588.368C665.355 588.209 665.131 588.093 664.861 588.018C664.59 587.934 664.231 587.855 663.783 587.78C663.185 587.668 662.705 587.556 662.341 587.444C661.977 587.323 661.664 587.122 661.403 586.842C661.151 586.562 661.025 586.175 661.025 585.68C661.025 585.064 661.281 584.56 661.795 584.168C662.308 583.776 663.022 583.58 663.937 583.58C664.413 583.58 664.889 583.645 665.365 583.776C665.841 583.897 666.233 584.061 666.541 584.266L666.107 585.064C665.5 584.644 664.777 584.434 663.937 584.434C663.302 584.434 662.821 584.546 662.495 584.77C662.177 584.994 662.019 585.288 662.019 585.652C662.019 585.932 662.107 586.156 662.285 586.324C662.471 586.492 662.7 586.618 662.971 586.702C663.241 586.777 663.615 586.856 664.091 586.94C664.679 587.052 665.15 587.164 665.505 587.276C665.859 587.388 666.163 587.579 666.415 587.85C666.667 588.121 666.793 588.494 666.793 588.97C666.793 589.614 666.522 590.127 665.981 590.51C665.449 590.883 664.707 591.07 663.755 591.07ZM668.63 583.636H669.624V591H668.63V583.636ZM669.134 582.026C668.929 582.026 668.756 581.956 668.616 581.816C668.476 581.676 668.406 581.508 668.406 581.312C668.406 581.125 668.476 580.962 668.616 580.822C668.756 580.682 668.929 580.612 669.134 580.612C669.339 580.612 669.512 580.682 669.652 580.822C669.792 580.953 669.862 581.111 669.862 581.298C669.862 581.503 669.792 581.676 669.652 581.816C669.512 581.956 669.339 582.026 669.134 582.026ZM675.4 591.07C674.691 591.07 674.051 590.911 673.482 590.594C672.913 590.267 672.465 589.819 672.138 589.25C671.811 588.681 671.648 588.037 671.648 587.318C671.648 586.599 671.811 585.955 672.138 585.386C672.465 584.817 672.913 584.373 673.482 584.056C674.051 583.739 674.691 583.58 675.4 583.58C676.109 583.58 676.749 583.739 677.318 584.056C677.887 584.373 678.331 584.817 678.648 585.386C678.975 585.955 679.138 586.599 679.138 587.318C679.138 588.037 678.975 588.681 678.648 589.25C678.331 589.819 677.887 590.267 677.318 590.594C676.749 590.911 676.109 591.07 675.4 591.07ZM675.4 590.188C675.923 590.188 676.389 590.071 676.8 589.838C677.22 589.595 677.547 589.255 677.78 588.816C678.013 588.377 678.13 587.878 678.13 587.318C678.13 586.758 678.013 586.259 677.78 585.82C677.547 585.381 677.22 585.045 676.8 584.812C676.389 584.569 675.923 584.448 675.4 584.448C674.877 584.448 674.406 584.569 673.986 584.812C673.575 585.045 673.249 585.381 673.006 585.82C672.773 586.259 672.656 586.758 672.656 587.318C672.656 587.878 672.773 588.377 673.006 588.816C673.249 589.255 673.575 589.595 673.986 589.838C674.406 590.071 674.877 590.188 675.4 590.188ZM684.919 583.58C685.843 583.58 686.576 583.851 687.117 584.392C687.668 584.924 687.943 585.703 687.943 586.73V591H686.949V586.828C686.949 586.063 686.758 585.479 686.375 585.078C685.993 584.677 685.447 584.476 684.737 584.476C683.944 584.476 683.314 584.714 682.847 585.19C682.39 585.657 682.161 586.305 682.161 587.136V591H681.167V583.636H682.119V584.994C682.39 584.546 682.763 584.201 683.239 583.958C683.725 583.706 684.285 583.58 684.919 583.58ZM694.394 583.58C695.318 583.58 696.051 583.851 696.592 584.392C697.143 584.924 697.418 585.703 697.418 586.73V591H696.424V586.828C696.424 586.063 696.233 585.479 695.85 585.078C695.467 584.677 694.921 584.476 694.212 584.476C693.419 584.476 692.789 584.714 692.322 585.19C691.865 585.657 691.636 586.305 691.636 587.136V591H690.642V583.636H691.594V584.994C691.865 584.546 692.238 584.201 692.714 583.958C693.199 583.706 693.759 583.58 694.394 583.58ZM706.556 587.626H700.396C700.452 588.391 700.746 589.012 701.278 589.488C701.81 589.955 702.482 590.188 703.294 590.188C703.751 590.188 704.171 590.109 704.554 589.95C704.936 589.782 705.268 589.539 705.548 589.222L706.108 589.866C705.781 590.258 705.37 590.557 704.876 590.762C704.39 590.967 703.854 591.07 703.266 591.07C702.51 591.07 701.838 590.911 701.25 590.594C700.671 590.267 700.218 589.819 699.892 589.25C699.565 588.681 699.402 588.037 699.402 587.318C699.402 586.599 699.556 585.955 699.864 585.386C700.181 584.817 700.61 584.373 701.152 584.056C701.702 583.739 702.318 583.58 703 583.58C703.681 583.58 704.292 583.739 704.834 584.056C705.375 584.373 705.8 584.817 706.108 585.386C706.416 585.946 706.57 586.59 706.57 587.318L706.556 587.626ZM703 584.434C702.29 584.434 701.693 584.663 701.208 585.12C700.732 585.568 700.461 586.156 700.396 586.884H705.618C705.552 586.156 705.277 585.568 704.792 585.12C704.316 584.663 703.718 584.434 703 584.434ZM708.593 580.612H709.587V591H708.593V580.612Z" fill="#8D93A8"/>
<defs>
<radialGradient id="paint0_radial" cx="0" cy="0" r="1" gradientUnits="userSpaceOnUse" gradientTransform="translate(720 421) rotate(31.9171) scale(617.921 1178.65)">
<stop offset="0.395833" stop-color="#24584D"/>
<stop offset="1" stop-color="#264740"/>
</radialGradient>
</defs>
</svg>
