<svg width="17" height="52" viewBox="0 0 17 52" fill="none" xmlns="http://www.w3.org/2000/svg">
<path d="M13.1044 0.813756C13.064 0.586132 12.945 0.379928 12.768 0.231181C12.591 0.0824347 12.3674 0.000607133 12.1363 0C12.0788 0.00106892 12.0215 0.00632297 11.9648 0.0157206C11.8377 0.0375332 11.7161 0.0841994 11.6071 0.153048C11.498 0.221896 11.4036 0.311575 11.3293 0.41695C11.255 0.522326 11.2021 0.641328 11.1739 0.767145C11.1456 0.892962 11.1424 1.02312 11.1644 1.15018L11.2442 1.6418L1.52915 5.86293C1.37505 5.75187 1.1916 5.68877 1.0018 5.68151C0.811991 5.67426 0.624266 5.72319 0.462146 5.82217C0.300026 5.92114 0.170721 6.06576 0.090436 6.23791C0.0101507 6.41005 -0.0175444 6.60206 0.0108211 6.78987L0.265781 8.48941C0.300276 8.71784 0.415436 8.92636 0.590403 9.07721C0.765371 9.22806 0.988576 9.31126 1.21959 9.31175C1.26829 9.31165 1.31691 9.30802 1.36508 9.30088C1.50921 9.27931 1.64657 9.22529 1.76679 9.1429C1.887 9.06051 1.98694 8.9519 2.05907 8.82526L2.07022 8.82698L3.76719 13.6861C3.81173 13.8165 3.88181 13.9368 3.97334 14.0398C4.06486 14.1429 4.176 14.2267 4.30026 14.2863C4.42474 14.3469 4.56002 14.3822 4.69824 14.3901C4.83646 14.398 4.97487 14.3784 5.10544 14.3323C5.23577 14.287 5.35586 14.2163 5.45885 14.1245C5.56184 14.0326 5.64569 13.9213 5.70562 13.797C5.76554 13.6727 5.80036 13.5378 5.80807 13.4C5.81578 13.2623 5.79624 13.1243 5.75056 12.9941L4.40287 9.13796L12.6399 10.2324L12.6685 10.4102C12.7126 10.6674 12.8571 10.8966 13.0701 11.0474C13.2832 11.1983 13.5474 11.2583 13.8047 11.2145H13.8069C14.0635 11.1694 14.2918 11.0244 14.4418 10.8114C14.5918 10.5983 14.6513 10.3346 14.6073 10.0778L13.1044 0.813756ZM1.27676 8.72637C1.22678 8.73439 1.17569 8.73223 1.12657 8.72C1.07745 8.70776 1.03131 8.68572 0.99093 8.6552C0.95029 8.62525 0.915981 8.58756 0.889981 8.54429C0.863981 8.50102 0.846804 8.45303 0.83944 8.40309L0.58448 6.70384C0.576744 6.65383 0.578994 6.60278 0.591101 6.55365C0.603209 6.50451 0.624933 6.45826 0.655018 6.41757C0.685104 6.37688 0.722955 6.34256 0.766383 6.31658C0.809812 6.29061 0.857958 6.27349 0.908039 6.26623C0.926943 6.26319 0.946059 6.26167 0.965205 6.26166C1.04658 6.26161 1.12585 6.28743 1.19158 6.3354C1.21473 6.35286 1.23608 6.37259 1.25532 6.39429C1.25904 6.39857 1.26104 6.40429 1.26475 6.40886C1.30557 6.46124 1.33277 6.52291 1.34393 6.58836L1.59946 8.28905C1.60056 8.31032 1.5998 8.33165 1.59717 8.35279C1.59916 8.38144 1.59772 8.41023 1.59289 8.43854C1.57443 8.51233 1.53457 8.57902 1.47833 8.63024C1.42208 8.68145 1.35196 8.71489 1.27676 8.72637ZM3.75776 9.05221L5.20119 13.1864C5.22184 13.2448 5.23066 13.3068 5.22713 13.3686C5.22359 13.4304 5.20778 13.4909 5.18061 13.5466C5.15425 13.6018 5.11709 13.6513 5.07135 13.692C5.0256 13.7327 4.97218 13.7638 4.91422 13.7835H4.91222C4.85384 13.8043 4.79189 13.8131 4.73004 13.8095C4.66819 13.8059 4.60768 13.79 4.55208 13.7627C4.49666 13.7362 4.44712 13.6989 4.40637 13.6529C4.36563 13.607 4.3345 13.5533 4.31484 13.4951L2.71419 8.91244L3.27642 8.98704L3.75776 9.05221ZM12.5419 9.63245L4.01186 8.49913L2.18255 8.25475C2.18084 8.23788 2.17855 8.22131 2.17598 8.20444V8.20301L1.92102 6.50347C1.9128 6.45108 1.90028 6.39946 1.88357 6.34912L1.88186 6.34284L10.1538 2.74853L10.9758 8.23045C10.986 8.29902 11.0205 8.36165 11.0729 8.407C11.1254 8.45235 11.1923 8.47743 11.2616 8.47769C11.2762 8.47762 11.2907 8.47657 11.3051 8.47455C11.3812 8.46305 11.4497 8.4218 11.4955 8.35985C11.5413 8.29789 11.5606 8.22031 11.5492 8.14413L10.7054 2.50872L11.3399 2.23318L11.5415 3.47311L12.5419 9.63245ZM13.7069 10.6411C13.6013 10.6586 13.4931 10.6339 13.4056 10.5723C13.3627 10.5423 13.3261 10.5041 13.298 10.46C13.2698 10.4158 13.2506 10.3666 13.2416 10.315L12.3384 4.76106L11.8524 1.77128V1.76985L11.7381 1.05299C11.7287 1.00077 11.7298 0.947197 11.7414 0.895415C11.753 0.843632 11.7748 0.794685 11.8056 0.751445C11.8349 0.70916 11.8723 0.67308 11.9156 0.64527C11.9589 0.61746 12.0073 0.598468 12.058 0.58938C12.0843 0.584533 12.1109 0.581666 12.1377 0.580805C12.2319 0.581192 12.323 0.614485 12.3952 0.674926C12.4674 0.735367 12.5163 0.819154 12.5333 0.911795L14.0356 10.1727C14.054 10.2784 14.0298 10.3871 13.9682 10.4749C13.9065 10.5627 13.8126 10.6225 13.7069 10.6411V10.6411Z" fill="#8D93A8"/>
<path d="M14.4739 3.93364C14.5315 3.9338 14.5878 3.91657 14.6354 3.88419L15.9397 3.00784C15.9713 2.98658 15.9985 2.95928 16.0196 2.92752C16.0407 2.89576 16.0554 2.86015 16.0627 2.82273C16.0701 2.7853 16.07 2.7468 16.0625 2.70941C16.0549 2.67202 16.0401 2.63648 16.0188 2.60482C15.9976 2.57316 15.9703 2.546 15.9385 2.52488C15.9068 2.50377 15.8711 2.48912 15.8337 2.48177C15.7963 2.47441 15.7578 2.4745 15.7204 2.48203C15.683 2.48956 15.6475 2.50438 15.6158 2.52565L14.3104 3.40228C14.2588 3.43703 14.2197 3.48745 14.1989 3.54611C14.178 3.60477 14.1766 3.66857 14.1948 3.7281C14.213 3.78763 14.2498 3.83973 14.2999 3.87674C14.3499 3.91375 14.4105 3.9337 14.4728 3.93364H14.4739Z" fill="#8D93A8"/>
<path d="M16.782 7.02773L15.2571 6.65129C15.1831 6.63473 15.1055 6.64781 15.0409 6.68774C14.9764 6.72766 14.9301 6.79127 14.9118 6.86493C14.8936 6.9386 14.9049 7.01647 14.9434 7.08188C14.9819 7.1473 15.0444 7.19506 15.1176 7.21495L16.6425 7.5931C16.6655 7.59855 16.689 7.60133 16.7126 7.60139C16.783 7.60071 16.8508 7.57443 16.9034 7.52744C16.9559 7.48046 16.9895 7.41598 16.998 7.34603C17.0065 7.27607 16.9893 7.20541 16.9496 7.14721C16.9098 7.08902 16.8503 7.04726 16.782 7.02973V7.02773Z" fill="#8D93A8"/>
<path d="M16.1111 5.46046C16.1878 5.45345 16.2586 5.41625 16.3079 5.35704C16.3572 5.29784 16.3809 5.22148 16.3739 5.14476C16.3669 5.06805 16.3297 4.99726 16.2705 4.94797C16.2113 4.89868 16.1349 4.87493 16.0582 4.88194L14.874 4.99027C14.7995 4.9969 14.7304 5.03204 14.6812 5.08835C14.6319 5.14467 14.6063 5.21781 14.6097 5.29255C14.613 5.36729 14.6451 5.43785 14.6992 5.48952C14.7533 5.5412 14.8252 5.57 14.9 5.56993C14.9089 5.56993 14.9181 5.56993 14.9266 5.56993L16.1111 5.46046Z" fill="#8D93A8"/>
<path d="M13.1044 37.8138C13.064 37.5861 12.945 37.3799 12.768 37.2312C12.591 37.0824 12.3674 37.0006 12.1363 37C12.0788 37.0011 12.0215 37.0063 11.9648 37.0157C11.8377 37.0375 11.7161 37.0842 11.6071 37.153C11.498 37.2219 11.4036 37.3116 11.3293 37.417C11.255 37.5223 11.2021 37.6413 11.1739 37.7671C11.1456 37.893 11.1424 38.0231 11.1644 38.1502L11.2442 38.6418L1.52915 42.8629C1.37505 42.7519 1.1916 42.6888 1.0018 42.6815C0.811991 42.6743 0.624266 42.7232 0.462146 42.8222C0.300026 42.9211 0.170721 43.0658 0.090436 43.2379C0.0101507 43.41 -0.0175444 43.6021 0.0108211 43.7899L0.265781 45.4894C0.300276 45.7178 0.415436 45.9264 0.590403 46.0772C0.765371 46.2281 0.988576 46.3113 1.21959 46.3117C1.26829 46.3117 1.31691 46.308 1.36508 46.3009C1.50921 46.2793 1.64657 46.2253 1.76679 46.1429C1.887 46.0605 1.98694 45.9519 2.05907 45.8253L2.07022 45.827L3.76719 50.6861C3.81173 50.8165 3.88181 50.9368 3.97334 51.0398C4.06486 51.1429 4.176 51.2267 4.30026 51.2863C4.42474 51.3469 4.56002 51.3822 4.69824 51.3901C4.83646 51.398 4.97487 51.3784 5.10544 51.3323C5.23577 51.287 5.35586 51.2163 5.45885 51.1245C5.56184 51.0326 5.64569 50.9213 5.70562 50.797C5.76554 50.6727 5.80036 50.5378 5.80807 50.4C5.81578 50.2623 5.79624 50.1243 5.75056 49.9941L4.40287 46.138L12.6399 47.2324L12.6685 47.4102C12.7126 47.6674 12.8571 47.8966 13.0701 48.0474C13.2832 48.1983 13.5474 48.2583 13.8047 48.2145H13.8069C14.0635 48.1694 14.2918 48.0244 14.4418 47.8114C14.5918 47.5983 14.6513 47.3346 14.6073 47.0778L13.1044 37.8138ZM1.27676 45.7264C1.22678 45.7344 1.17569 45.7322 1.12657 45.72C1.07745 45.7078 1.03131 45.6857 0.99093 45.6552C0.95029 45.6253 0.915981 45.5876 0.889981 45.5443C0.863981 45.501 0.846804 45.453 0.83944 45.4031L0.58448 43.7038C0.576744 43.6538 0.578994 43.6028 0.591101 43.5536C0.603209 43.5045 0.624933 43.4583 0.655018 43.4176C0.685104 43.3769 0.722955 43.3426 0.766383 43.3166C0.809812 43.2906 0.857958 43.2735 0.908039 43.2662C0.926943 43.2632 0.946059 43.2617 0.965205 43.2617C1.04658 43.2616 1.12585 43.2874 1.19158 43.3354C1.21473 43.3529 1.23608 43.3726 1.25532 43.3943C1.25904 43.3986 1.26104 43.4043 1.26475 43.4089C1.30557 43.4612 1.33277 43.5229 1.34393 43.5884L1.59946 45.289C1.60056 45.3103 1.5998 45.3316 1.59717 45.3528C1.59916 45.3814 1.59772 45.4102 1.59289 45.4385C1.57443 45.5123 1.53457 45.579 1.47833 45.6302C1.42208 45.6814 1.35196 45.7149 1.27676 45.7264ZM3.75776 46.0522L5.20119 50.1864C5.22184 50.2448 5.23066 50.3068 5.22713 50.3686C5.22359 50.4304 5.20778 50.4909 5.18061 50.5466C5.15425 50.6018 5.11709 50.6513 5.07135 50.692C5.0256 50.7327 4.97218 50.7638 4.91422 50.7835H4.91222C4.85384 50.8043 4.79189 50.8131 4.73004 50.8095C4.66819 50.8059 4.60768 50.79 4.55208 50.7627C4.49666 50.7362 4.44712 50.6989 4.40637 50.6529C4.36563 50.607 4.3345 50.5533 4.31484 50.4951L2.71419 45.9124L3.27642 45.987L3.75776 46.0522ZM12.5419 46.6324L4.01186 45.4991L2.18255 45.2547C2.18084 45.2379 2.17855 45.2213 2.17598 45.2044V45.203L1.92102 43.5035C1.9128 43.4511 1.90028 43.3995 1.88357 43.3491L1.88186 43.3428L10.1538 39.7485L10.9758 45.2305C10.986 45.299 11.0205 45.3616 11.0729 45.407C11.1254 45.4524 11.1923 45.4774 11.2616 45.4777C11.2762 45.4776 11.2907 45.4766 11.3051 45.4746C11.3812 45.4631 11.4497 45.4218 11.4955 45.3598C11.5413 45.2979 11.5606 45.2203 11.5492 45.1441L10.7054 39.5087L11.3399 39.2332L11.5415 40.4731L12.5419 46.6324ZM13.7069 47.6411C13.6013 47.6586 13.4931 47.6339 13.4056 47.5723C13.3627 47.5423 13.3261 47.5041 13.298 47.46C13.2698 47.4158 13.2506 47.3666 13.2416 47.315L12.3384 41.7611L11.8524 38.7713V38.7699L11.7381 38.053C11.7287 38.0008 11.7298 37.9472 11.7414 37.8954C11.753 37.8436 11.7748 37.7947 11.8056 37.7514C11.8349 37.7092 11.8723 37.6731 11.9156 37.6453C11.9589 37.6175 12.0073 37.5985 12.058 37.5894C12.0843 37.5845 12.1109 37.5817 12.1377 37.5808C12.2319 37.5812 12.323 37.6145 12.3952 37.6749C12.4674 37.7354 12.5163 37.8192 12.5333 37.9118L14.0356 47.1727C14.054 47.2784 14.0298 47.3871 13.9682 47.4749C13.9065 47.5627 13.8126 47.6225 13.7069 47.6411V47.6411Z" fill="#24584D"/>
<path d="M14.4739 40.9336C14.5315 40.9338 14.5878 40.9166 14.6354 40.8842L15.9397 40.0078C15.9713 39.9866 15.9985 39.9593 16.0196 39.9275C16.0407 39.8958 16.0554 39.8602 16.0627 39.8227C16.0701 39.7853 16.07 39.7468 16.0625 39.7094C16.0549 39.672 16.0401 39.6365 16.0188 39.6048C15.9976 39.5732 15.9703 39.546 15.9385 39.5249C15.9068 39.5038 15.8711 39.4891 15.8337 39.4818C15.7963 39.4744 15.7578 39.4745 15.7204 39.482C15.683 39.4896 15.6475 39.5044 15.6158 39.5256L14.3104 40.4023C14.2588 40.437 14.2197 40.4874 14.1989 40.5461C14.178 40.6048 14.1766 40.6686 14.1948 40.7281C14.213 40.7876 14.2498 40.8397 14.2999 40.8767C14.3499 40.9137 14.4105 40.9337 14.4728 40.9336H14.4739Z" fill="#FFA077"/>
<path d="M16.782 44.0277L15.2571 43.6513C15.1831 43.6347 15.1055 43.6478 15.0409 43.6877C14.9764 43.7277 14.9301 43.7913 14.9118 43.8649C14.8936 43.9386 14.9049 44.0165 14.9434 44.0819C14.9819 44.1473 15.0444 44.1951 15.1176 44.2149L16.6425 44.5931C16.6655 44.5985 16.689 44.6013 16.7126 44.6014C16.783 44.6007 16.8508 44.5744 16.9034 44.5274C16.9559 44.4805 16.9895 44.416 16.998 44.346C17.0065 44.2761 16.9893 44.2054 16.9496 44.1472C16.9098 44.089 16.8503 44.0473 16.782 44.0297V44.0277Z" fill="#FFA077"/>
<path d="M16.1111 42.4605C16.1878 42.4535 16.2586 42.4162 16.3079 42.357C16.3572 42.2978 16.3809 42.2215 16.3739 42.1448C16.3669 42.068 16.3297 41.9973 16.2705 41.948C16.2113 41.8987 16.1349 41.8749 16.0582 41.8819L14.874 41.9903C14.7995 41.9969 14.7304 42.032 14.6812 42.0884C14.6319 42.1447 14.6063 42.2178 14.6097 42.2926C14.613 42.3673 14.6451 42.4378 14.6992 42.4895C14.7533 42.5412 14.8252 42.57 14.9 42.5699C14.9089 42.5699 14.9181 42.5699 14.9266 42.5699L16.1111 42.4605Z" fill="#FFA077"/>
</svg>
