<svg xmlns="http://www.w3.org/2000/svg" viewBox="0 0 18.5 18.5"><defs><style>.cls-1{fill:none;stroke:#8d93a8;stroke-linecap:round;stroke-linejoin:round;stroke-width:1.5px;}</style></defs><g id="Calque_2" data-name="Calque 2"><g id="Calque_1-2" data-name="Calque 1"><path class="cls-1" d="M7,15.53H1.49A.7.7,0,0,1,1,15.32a.75.75,0,0,1-.22-.53V3A.71.71,0,0,1,1,2.45a.71.71,0,0,1,.52-.22H11.84a.74.74,0,0,1,.52.22.71.71,0,0,1,.22.52V8.51"/><path class="cls-1" d="M3.71,3.71v-3"/><path class="cls-1" d="M6.66,3.71v-3"/><path class="cls-1" d="M9.62,3.71v-3"/><path class="cls-1" d="M17.29,11.56,11.65,17.2l-2.77.55L9.43,15l5.64-5.64a1.61,1.61,0,0,1,1.11-.46,1.59,1.59,0,0,1,1.11.46h0a1.53,1.53,0,0,1,.46,1.1,1.57,1.57,0,0,1-.46,1.11Z"/></g></g></svg>