<svg width="18" height="54" viewBox="0 0 18 54" fill="none" xmlns="http://www.w3.org/2000/svg">
<path d="M6.75604 12.8544H3.59463C3.41568 12.8544 3.29639 12.7351 3.29639 12.5562V2.59475C3.29639 2.41581 3.41568 2.29651 3.59463 2.29651H6.75604C6.93498 2.29651 7.05428 2.41581 7.05428 2.59475V12.5562C7.05428 12.7351 6.90516 12.8544 6.75604 12.8544ZM3.89288 12.2579H6.45779V2.893H3.89288V12.2579V12.2579Z" fill="#8D93A8"/>
<path d="M6.66644 4.92108H3.68399C3.50504 4.92108 3.38574 4.80178 3.38574 4.62283C3.38574 4.44388 3.50504 4.32458 3.68399 4.32458H6.66644C6.84539 4.32458 6.96469 4.44388 6.96469 4.62283C6.96469 4.80178 6.84539 4.92108 6.66644 4.92108Z" fill="#8D93A8"/>
<path d="M6.66644 11.1843H3.68399C3.50504 11.1843 3.38574 11.065 3.38574 10.886C3.38574 10.7071 3.50504 10.5878 3.68399 10.5878H6.66644C6.84539 10.5878 6.96469 10.7071 6.96469 10.886C6.96469 11.065 6.84539 11.1843 6.66644 11.1843Z" fill="#8D93A8"/>
<path d="M11.3195 12.8544H8.15811C7.97916 12.8544 7.85986 12.7351 7.85986 12.5561V0.298246C7.85986 0.119298 7.97916 0 8.15811 0H11.3195C11.4985 0 11.6178 0.119298 11.6178 0.298246V12.5561C11.6178 12.7351 11.4985 12.8544 11.3195 12.8544ZM8.45635 12.2579H11.0213V0.596491H8.45635V12.2579Z" fill="#8D93A8"/>
<path d="M11.1402 3.13153H8.45596C8.27701 3.13153 8.15771 3.01223 8.15771 2.83328C8.15771 2.65433 8.27701 2.53503 8.45596 2.53503H11.1402C11.3191 2.53503 11.4384 2.65433 11.4384 2.83328C11.4384 3.01223 11.3191 3.13153 11.1402 3.13153Z" fill="#8D93A8"/>
<path d="M11.1402 10.5877H8.45596C8.27701 10.5877 8.15771 10.4684 8.15771 10.2895C8.15771 10.1105 8.27701 9.99121 8.45596 9.99121H11.1402C11.3191 9.99121 11.4384 10.1105 11.4384 10.2895C11.4384 10.4684 11.3191 10.5877 11.1402 10.5877Z" fill="#8D93A8"/>
<path d="M15.9123 12.8544H12.7509C12.5719 12.8544 12.4526 12.7351 12.4526 12.5562V2.59475C12.4526 2.41581 12.5719 2.29651 12.7509 2.29651H15.9123C16.0912 2.29651 16.2105 2.41581 16.2105 2.59475V12.5562C16.2105 12.7351 16.0614 12.8544 15.9123 12.8544ZM13.0491 12.2579H15.614V2.893H13.0491V12.2579Z" fill="#8D93A8"/>
<path d="M15.912 4.92108H12.9296C12.7506 4.92108 12.6313 4.80178 12.6313 4.62283C12.6313 4.44388 12.7506 4.32458 12.9296 4.32458H15.912C16.091 4.32458 16.2103 4.44388 16.2103 4.62283C16.2103 4.80178 16.091 4.92108 15.912 4.92108Z" fill="#8D93A8"/>
<path d="M15.912 11.1843H12.9296C12.7506 11.1843 12.6313 11.065 12.6313 10.886C12.6313 10.7071 12.7506 10.5878 12.9296 10.5878H15.912C16.091 10.5878 16.2103 10.7071 16.2103 10.886C16.2103 11.065 16.091 11.1843 15.912 11.1843Z" fill="#8D93A8"/>
<path d="M17.7018 14.1667H1.29825C1.1193 14.1667 1 14.0474 1 13.8684C1 13.6895 1.1193 13.5702 1.29825 13.5702H17.7018C17.8807 13.5702 18 13.6895 18 13.8684C18 14.0474 17.8807 14.1667 17.7018 14.1667Z" fill="#8D93A8"/>
<path d="M5.75604 51.8544H2.59463C2.41568 51.8544 2.29639 51.7351 2.29639 51.5562V41.5948C2.29639 41.4158 2.41568 41.2965 2.59463 41.2965H5.75604C5.93498 41.2965 6.05428 41.4158 6.05428 41.5948V51.5562C6.05428 51.7351 5.90516 51.8544 5.75604 51.8544ZM2.89288 51.2579H5.45779V41.893H2.89288V51.2579V51.2579Z" fill="#24584D"/>
<path d="M5.66644 43.9211H2.68399C2.50504 43.9211 2.38574 43.8018 2.38574 43.6228C2.38574 43.4439 2.50504 43.3246 2.68399 43.3246H5.66644C5.84539 43.3246 5.96469 43.4439 5.96469 43.6228C5.96469 43.8018 5.84539 43.9211 5.66644 43.9211Z" fill="#24584D"/>
<path d="M5.66644 50.1843H2.68399C2.50504 50.1843 2.38574 50.065 2.38574 49.886C2.38574 49.7071 2.50504 49.5878 2.68399 49.5878H5.66644C5.84539 49.5878 5.96469 49.7071 5.96469 49.886C5.96469 50.065 5.84539 50.1843 5.66644 50.1843Z" fill="#24584D"/>
<path d="M10.3195 51.8544H7.15811C6.97916 51.8544 6.85986 51.7351 6.85986 51.5561V39.2982C6.85986 39.1193 6.97916 39 7.15811 39H10.3195C10.4985 39 10.6178 39.1193 10.6178 39.2982V51.5561C10.6178 51.7351 10.4985 51.8544 10.3195 51.8544ZM7.45635 51.2579H10.0213V39.5965H7.45635V51.2579Z" fill="#FFA077"/>
<path d="M10.1402 42.1315H7.45596C7.27701 42.1315 7.15771 42.0122 7.15771 41.8333C7.15771 41.6543 7.27701 41.535 7.45596 41.535H10.1402C10.3191 41.535 10.4384 41.6543 10.4384 41.8333C10.4384 42.0122 10.3191 42.1315 10.1402 42.1315Z" fill="#FFA077"/>
<path d="M10.1402 49.5877H7.45596C7.27701 49.5877 7.15771 49.4684 7.15771 49.2895C7.15771 49.1105 7.27701 48.9912 7.45596 48.9912H10.1402C10.3191 48.9912 10.4384 49.1105 10.4384 49.2895C10.4384 49.4684 10.3191 49.5877 10.1402 49.5877Z" fill="#FFA077"/>
<path d="M14.9123 51.8544H11.7509C11.5719 51.8544 11.4526 51.7351 11.4526 51.5562V41.5948C11.4526 41.4158 11.5719 41.2965 11.7509 41.2965H14.9123C15.0912 41.2965 15.2105 41.4158 15.2105 41.5948V51.5562C15.2105 51.7351 15.0614 51.8544 14.9123 51.8544ZM12.0491 51.2579H14.614V41.893H12.0491V51.2579Z" fill="#24584D"/>
<path d="M14.912 43.9211H11.9296C11.7506 43.9211 11.6313 43.8018 11.6313 43.6228C11.6313 43.4439 11.7506 43.3246 11.9296 43.3246H14.912C15.091 43.3246 15.2103 43.4439 15.2103 43.6228C15.2103 43.8018 15.091 43.9211 14.912 43.9211Z" fill="#24584D"/>
<path d="M14.912 50.1843H11.9296C11.7506 50.1843 11.6313 50.065 11.6313 49.886C11.6313 49.7071 11.7506 49.5878 11.9296 49.5878H14.912C15.091 49.5878 15.2103 49.7071 15.2103 49.886C15.2103 50.065 15.091 50.1843 14.912 50.1843Z" fill="#24584D"/>
<path d="M16.7018 53.1667H0.298246C0.119298 53.1667 0 53.0474 0 52.8684C0 52.6895 0.119298 52.5702 0.298246 52.5702H16.7018C16.8807 52.5702 17 52.6895 17 52.8684C17 53.0474 16.8807 53.1667 16.7018 53.1667Z" fill="#24584D"/>
</svg>
