<svg width="18" height="53" viewBox="0 0 18 53" fill="none" xmlns="http://www.w3.org/2000/svg">
<path d="M13.7358 6.60503C13.7358 6.41726 13.5837 6.26501 13.3958 6.26501H10.1318C9.94388 6.26501 9.79181 6.41726 9.79181 6.60503V10.353H7.20684V8.63913C7.20684 8.45136 7.05476 8.29912 6.86683 8.29912H3.60283C3.4149 8.29912 3.26282 8.45136 3.26282 8.63913V11.3098H0.340501C0.152566 11.3098 0.000488281 11.462 0.000488281 11.6498V16.6603C0.000488281 16.8481 0.152566 17.0003 0.340501 17.0003C5.36384 17.0003 11.4464 17.0003 16.6598 17.0003C16.8477 17.0003 16.9998 16.8481 16.9998 16.6603V9.38689C16.9998 9.19912 16.8477 9.04688 16.6598 9.04688H13.7358V6.60503ZM0.680515 11.9898H3.26282V16.3203H0.680515V11.9898ZM6.52682 16.3203H3.94451C3.94434 15.5675 3.94512 19.0424 3.94285 8.97914H6.52682V16.3203ZM7.20784 11.033H9.79181V16.3203H7.20784V11.033ZM10.4718 6.94504H13.0558C13.0558 9.1724 13.0558 14.0662 13.0558 16.3203H10.4718C10.4718 13.0618 10.4718 10.1934 10.4718 6.94504ZM16.3198 9.72691V16.3203H13.7358V9.72691H16.3198Z" fill="#8D93A8"/>
<path d="M1.48192 7.32423C2.29874 7.32423 2.9635 6.65964 2.9635 5.84265C2.9635 5.52947 2.86449 5.23976 2.69801 5.00021L3.92458 3.6373C4.13487 3.75202 4.37216 3.82316 4.62804 3.82316C5.00897 3.82316 5.35328 3.67467 5.61607 3.43765L6.67019 4.16593C6.6049 4.3328 6.56585 4.51283 6.56585 4.70258C6.56585 5.51957 7.2306 6.18416 8.04743 6.18416C8.86425 6.18416 9.52901 5.51957 9.52901 4.70258C9.52901 4.42476 9.44743 4.16759 9.31386 3.94516L10.5659 2.7286C10.7958 2.87542 11.0671 2.96333 11.3596 2.96333C11.7084 2.96333 12.0252 2.83711 12.2786 2.63463L13.6853 3.73504C13.5983 3.9235 13.5464 4.13125 13.5464 4.3521C13.5464 5.1691 14.2112 5.83368 15.028 5.83368C15.8448 5.83368 16.5096 5.1691 16.5096 4.3521C16.5096 3.53511 15.8448 2.87052 15.028 2.87052C14.6781 2.87052 14.3604 2.99757 14.1066 3.20122L12.7008 2.10153C12.7886 1.91232 12.8411 1.7037 12.8411 1.48175C12.8411 0.664753 12.1764 0 11.3596 0C10.5424 0 9.87765 0.664753 9.87765 1.48175C9.87765 1.75971 9.95931 2.01704 10.093 2.23955L8.84122 3.45592C8.61124 3.30896 8.33996 3.22099 8.04743 3.22099C7.66601 3.22099 7.32123 3.36987 7.05831 3.60755L6.00506 2.87988C6.07077 2.71251 6.10995 2.53179 6.10995 2.34141C6.10995 1.52441 5.44519 0.859825 4.62837 0.859825C3.81121 0.859825 3.14645 1.52441 3.14645 2.34141C3.14645 2.65618 3.24673 2.94708 3.41476 3.18733L2.18929 4.54902C1.97809 4.43299 1.73939 4.36106 1.48191 4.36106C0.664753 4.36106 0 5.02565 0 5.84264C0 6.65964 0.664753 7.32423 1.48192 7.32423ZM15.8295 4.3521C15.8295 4.79405 15.4699 5.15366 15.028 5.15366C14.586 5.15366 14.2264 4.79405 14.2264 4.3521C14.2264 3.91015 14.586 3.55055 15.028 3.55055C15.4699 3.55055 15.8295 3.91015 15.8295 4.3521ZM11.3596 0.680026C11.8015 0.680026 12.1611 1.03963 12.1611 1.48175C12.1611 1.9237 11.8015 2.2833 11.3596 2.2833C10.9173 2.2833 10.5577 1.9237 10.5577 1.48175C10.5577 1.03963 10.9173 0.680026 11.3596 0.680026ZM8.04743 3.90102C8.48938 3.90102 8.84898 4.26062 8.84898 4.70257C8.84898 5.14452 8.48938 5.50413 8.04743 5.50413C7.60548 5.50413 7.24587 5.14452 7.24587 4.70257C7.24587 4.53402 7.29873 4.37792 7.38797 4.24869L7.38799 4.24867C7.53273 4.03911 7.77405 3.90102 8.04743 3.90102ZM4.62837 1.53986C5.07031 1.53986 5.42992 1.89946 5.42992 2.34141C5.42992 2.78353 5.07031 3.14313 4.62803 3.14313C4.18608 3.14313 3.82648 2.78353 3.82648 2.34141C3.82648 1.89946 4.18608 1.53986 4.62837 1.53986ZM1.48192 5.04109C1.92387 5.04109 2.28347 5.4007 2.28347 5.84265C2.28347 6.2846 1.92387 6.6442 1.48192 6.6442C1.03963 6.6442 0.68003 6.2846 0.68003 5.84265C0.68003 5.4007 1.03963 5.04109 1.48192 5.04109Z" fill="#8D93A8"/>
<path d="M14.7358 42.605C14.7358 42.4173 14.5837 42.265 14.3958 42.265H11.1318C10.9439 42.265 10.7918 42.4173 10.7918 42.605V46.353H8.20684V44.6391C8.20684 44.4514 8.05476 44.2991 7.86683 44.2991H4.60283C4.4149 44.2991 4.26282 44.4514 4.26282 44.6391V47.3098H1.3405C1.15257 47.3098 1.00049 47.462 1.00049 47.6498V52.6603C1.00049 52.8481 1.15257 53.0003 1.3405 53.0003C6.36384 53.0003 12.4464 53.0003 17.6598 53.0003C17.8477 53.0003 17.9998 52.8481 17.9998 52.6603V45.3869C17.9998 45.1991 17.8477 45.0469 17.6598 45.0469H14.7358V42.605ZM1.68051 47.9898H4.26282V52.3203H1.68051V47.9898ZM7.52682 52.3203H4.94451C4.94434 51.5675 4.94512 55.0424 4.94285 44.9791H7.52682V52.3203ZM8.20784 47.033H10.7918V52.3203H8.20784V47.033ZM11.4718 42.945H14.0558C14.0558 45.1724 14.0558 50.0662 14.0558 52.3203H11.4718C11.4718 49.0618 11.4718 46.1934 11.4718 42.945ZM17.3198 45.7269V52.3203H14.7358V45.7269H17.3198Z" fill="#24584D"/>
<path d="M2.48192 43.3242C3.29874 43.3242 3.9635 42.6596 3.9635 41.8426C3.9635 41.5295 3.86449 41.2398 3.69801 41.0002L4.92458 39.6373C5.13487 39.752 5.37216 39.8232 5.62804 39.8232C6.00897 39.8232 6.35328 39.6747 6.61607 39.4377L7.67019 40.1659C7.6049 40.3328 7.56585 40.5128 7.56585 40.7026C7.56585 41.5196 8.2306 42.1842 9.04743 42.1842C9.86425 42.1842 10.529 41.5196 10.529 40.7026C10.529 40.4248 10.4474 40.1676 10.3139 39.9452L11.5659 38.7286C11.7958 38.8754 12.0671 38.9633 12.3596 38.9633C12.7084 38.9633 13.0252 38.8371 13.2786 38.6346L14.6853 39.735C14.5983 39.9235 14.5464 40.1313 14.5464 40.3521C14.5464 41.1691 15.2112 41.8337 16.028 41.8337C16.8448 41.8337 17.5096 41.1691 17.5096 40.3521C17.5096 39.5351 16.8448 38.8705 16.028 38.8705C15.6781 38.8705 15.3604 38.9976 15.1066 39.2012L13.7008 38.1015C13.7886 37.9123 13.8411 37.7037 13.8411 37.4817C13.8411 36.6648 13.1764 36 12.3596 36C11.5424 36 10.8777 36.6648 10.8777 37.4817C10.8777 37.7597 10.9593 38.017 11.093 38.2396L9.84122 39.4559C9.61124 39.309 9.33996 39.221 9.04743 39.221C8.66601 39.221 8.32123 39.3699 8.05831 39.6076L7.00506 38.8799C7.07077 38.7125 7.10995 38.5318 7.10995 38.3414C7.10995 37.5244 6.44519 36.8598 5.62837 36.8598C4.81121 36.8598 4.14645 37.5244 4.14645 38.3414C4.14645 38.6562 4.24673 38.9471 4.41476 39.1873L3.18929 40.549C2.97809 40.433 2.73939 40.3611 2.48191 40.3611C1.66475 40.3611 1 41.0257 1 41.8426C1 42.6596 1.66475 43.3242 2.48192 43.3242ZM16.8295 40.3521C16.8295 40.7941 16.4699 41.1537 16.028 41.1537C15.586 41.1537 15.2264 40.7941 15.2264 40.3521C15.2264 39.9102 15.586 39.5505 16.028 39.5505C16.4699 39.5505 16.8295 39.9102 16.8295 40.3521ZM12.3596 36.68C12.8015 36.68 13.1611 37.0396 13.1611 37.4817C13.1611 37.9237 12.8015 38.2833 12.3596 38.2833C11.9173 38.2833 11.5577 37.9237 11.5577 37.4817C11.5577 37.0396 11.9173 36.68 12.3596 36.68ZM9.04743 39.901C9.48938 39.901 9.84898 40.2606 9.84898 40.7026C9.84898 41.1445 9.48938 41.5041 9.04743 41.5041C8.60548 41.5041 8.24587 41.1445 8.24587 40.7026C8.24587 40.534 8.29873 40.3779 8.38797 40.2487L8.38799 40.2487C8.53273 40.0391 8.77405 39.901 9.04743 39.901ZM5.62837 37.5399C6.07031 37.5399 6.42992 37.8995 6.42992 38.3414C6.42992 38.7835 6.07031 39.1431 5.62803 39.1431C5.18608 39.1431 4.82648 38.7835 4.82648 38.3414C4.82648 37.8995 5.18608 37.5399 5.62837 37.5399ZM2.48192 41.0411C2.92387 41.0411 3.28347 41.4007 3.28347 41.8426C3.28347 42.2846 2.92387 42.6442 2.48192 42.6442C2.03963 42.6442 1.68003 42.2846 1.68003 41.8426C1.68003 41.4007 2.03963 41.0411 2.48192 41.0411Z" fill="#FFA077"/>
</svg>
