<svg width="24" height="53" viewBox="0 0 24 53" fill="none" xmlns="http://www.w3.org/2000/svg">
<path d="M5.49408 51.0996C5.39212 51.0995 5.29491 51.0565 5.22624 50.9811C5.15756 50.9058 5.12375 50.805 5.13307 50.7035L5.54658 46.2059C4.53434 45.0074 4 43.6109 4 42.1569C4 38.2105 7.94246 35 12.7882 35C17.6339 35 21.5764 38.2105 21.5764 42.1569C21.5764 46.1034 17.6339 49.3144 12.7882 49.3144C11.903 49.3145 11.0213 49.204 10.1635 48.9855L5.64711 51.0655C5.59921 51.0879 5.54697 51.0996 5.49408 51.0996ZM12.7882 35.7255C8.3421 35.7255 4.725 38.6107 4.725 42.1569C4.725 43.4807 5.23261 44.7559 6.19333 45.8458C6.25938 45.9206 6.29163 46.0194 6.28247 46.1187L5.91254 50.1439L9.97633 48.2704C10.0539 48.2349 10.1415 48.2276 10.2239 48.2496C11.0601 48.4746 11.9223 48.5889 12.7882 48.5894C17.2343 48.5894 20.8509 45.7037 20.8509 42.1574C20.8509 38.6112 17.2338 35.7255 12.7882 35.7255Z" fill="#24584D"/>
<path d="M22.7119 52.8156C22.6596 52.8157 22.6079 52.8043 22.5603 52.7825L18.8893 51.0903C18.1898 51.2666 17.4713 51.3559 16.7499 51.3562C14.512 51.3562 12.4341 50.5337 11.0499 49.0995C10.9108 48.9554 10.915 48.7258 11.0591 48.5867C11.2032 48.4476 11.4328 48.4517 11.5719 48.5959C12.8203 49.8894 14.7076 50.6312 16.7499 50.6312C17.4522 50.631 18.1515 50.5387 18.8298 50.3569C18.9123 50.3346 18.9999 50.3419 19.0775 50.3777L22.2964 51.8633L21.9993 48.684C21.9901 48.5847 22.0224 48.4859 22.0884 48.4111C22.8629 47.5326 23.2725 46.5045 23.2725 45.4398C23.2725 43.9309 22.4464 42.4982 21.0063 41.5087C20.8996 41.4353 20.8401 41.3105 20.8503 41.1813C20.8605 41.0521 20.9388 40.9382 21.0558 40.8825C21.1728 40.8267 21.3106 40.8376 21.4174 40.911C23.059 42.0367 24 43.6867 24 45.4388C24 46.6348 23.5642 47.7837 22.7381 48.7702L23.0734 52.4195C23.0827 52.521 23.0489 52.6218 22.9802 52.6971C22.9116 52.7725 22.8143 52.8155 22.7124 52.8156H22.7119Z" fill="#24584D"/>
<path d="M8.90808 43.3509C9.49966 43.3509 9.97924 42.8714 9.97924 42.2798C9.97924 41.6882 9.49966 41.2086 8.90808 41.2086C8.31649 41.2086 7.83691 41.6882 7.83691 42.2798C7.83691 42.8714 8.31649 43.3509 8.90808 43.3509Z" fill="#FFA077"/>
<path d="M16.6678 43.3509C17.2594 43.3509 17.739 42.8714 17.739 42.2798C17.739 41.6882 17.2594 41.2086 16.6678 41.2086C16.0763 41.2086 15.5967 41.6882 15.5967 42.2798C15.5967 42.8714 16.0763 43.3509 16.6678 43.3509Z" fill="#FFA077"/>
<path d="M12.7875 43.3509C13.3791 43.3509 13.8586 42.8714 13.8586 42.2798C13.8586 41.6882 13.3791 41.2086 12.7875 41.2086C12.1959 41.2086 11.7163 41.6882 11.7163 42.2798C11.7163 42.8714 12.1959 43.3509 12.7875 43.3509Z" fill="#FFA077"/>
<path d="M1.49408 16.0996C1.39212 16.0995 1.29491 16.0565 1.22624 15.9811C1.15756 15.9058 1.12375 15.805 1.13307 15.7035L1.54658 11.2059C0.534344 10.0074 0 8.61091 0 7.15694C0 3.21052 3.94246 0 8.78819 0C13.6339 0 17.5764 3.21052 17.5764 7.15694C17.5764 11.1034 13.6339 14.3144 8.78819 14.3144C7.90303 14.3145 7.02131 14.204 6.16352 13.9855L1.64711 16.0655C1.59921 16.0879 1.54697 16.0996 1.49408 16.0996ZM8.78819 0.725499C4.3421 0.725499 0.725004 3.61066 0.725004 7.15694C0.725004 8.48066 1.23261 9.75586 2.19333 10.8458C2.25938 10.9206 2.29163 11.0194 2.28247 11.1187L1.91254 15.1439L5.97633 13.2704C6.05394 13.2349 6.14149 13.2276 6.22394 13.2496C7.06013 13.4746 7.92226 13.5889 8.78819 13.5894C13.2343 13.5894 16.8509 10.7037 16.8509 7.15743C16.8509 3.61115 13.2338 0.725499 8.78819 0.725499Z" fill="#8D93A8"/>
<path d="M18.7119 17.8156C18.6596 17.8157 18.6079 17.8043 18.5603 17.7825L14.8893 16.0903C14.1898 16.2666 13.4713 16.3559 12.7499 16.3562C10.512 16.3562 8.43407 15.5337 7.04992 14.0995C6.91085 13.9554 6.91495 13.7258 7.05909 13.5867C7.20322 13.4476 7.43281 13.4517 7.57189 13.5959C8.82034 14.8894 10.7076 15.6312 12.7499 15.6312C13.4522 15.631 14.1515 15.5387 14.8298 15.3569C14.9123 15.3346 14.9999 15.3419 15.0775 15.3777L18.2964 16.8633L17.9993 13.684C17.9901 13.5847 18.0224 13.4859 18.0884 13.4111C18.8629 12.5326 19.2725 11.5045 19.2725 10.4398C19.2725 8.93087 18.4464 7.4982 17.0063 6.50874C16.8996 6.43532 16.8401 6.31051 16.8503 6.18133C16.8605 6.05215 16.9388 5.93822 17.0558 5.88246C17.1728 5.82671 17.3106 5.83759 17.4174 5.91101C19.059 7.03665 20 8.68673 20 10.4388C20 11.6348 19.5642 12.7837 18.7381 13.7702L19.0734 17.4195C19.0827 17.521 19.0489 17.6218 18.9802 17.6971C18.9116 17.7725 18.8143 17.8155 18.7124 17.8156H18.7119Z" fill="#8D93A8"/>
<path d="M4.90808 8.35094C5.49966 8.35094 5.97924 7.87137 5.97924 7.27978C5.97924 6.68819 5.49966 6.20862 4.90808 6.20862C4.31649 6.20862 3.83691 6.68819 3.83691 7.27978C3.83691 7.87137 4.31649 8.35094 4.90808 8.35094Z" fill="#8D93A8"/>
<path d="M12.6678 8.35094C13.2594 8.35094 13.739 7.87137 13.739 7.27978C13.739 6.68819 13.2594 6.20862 12.6678 6.20862C12.0763 6.20862 11.5967 6.68819 11.5967 7.27978C11.5967 7.87137 12.0763 8.35094 12.6678 8.35094Z" fill="#8D93A8"/>
<path d="M8.78747 8.35094C9.37906 8.35094 9.85863 7.87137 9.85863 7.27978C9.85863 6.68819 9.37906 6.20862 8.78747 6.20862C8.19589 6.20862 7.71631 6.68819 7.71631 7.27978C7.71631 7.87137 8.19589 8.35094 8.78747 8.35094Z" fill="#8D93A8"/>
</svg>
