<svg width="191" height="121" viewBox="0 0 191 121" fill="none" xmlns="http://www.w3.org/2000/svg">
<rect x="67.5" y="4.5" width="57" height="57" rx="5.5" fill="#2E5BEC" stroke="#2E5BEC" stroke-width="9"/>
<path fill-rule="evenodd" clip-rule="evenodd" d="M111.507 20.1315L111.299 20.0403C110.378 19.6401 109.332 20.1566 108.975 21.1895L102.403 39.4475L102.4 39.4412L102.314 39.7293L95.3454 26.4035C95.0894 25.7614 95.1264 25.3842 95.1884 25.0165C95.1884 25.0165 95.1844 25.0039 95.1884 25.0165C95.2854 24.3575 95.7674 23.8327 96.3854 23.8327C97.0524 23.8327 97.5934 24.4393 97.5934 25.1873C97.5934 25.9353 97.5014 26.436 96.7914 27.8796L98.4954 31.2006L100.381 27.7005C100.752 26.9609 100.966 26.1102 100.966 25.2051C100.966 22.388 98.9114 20.0822 96.3984 20.0822C93.8864 20.0822 91.8314 22.388 91.8314 25.2051C91.8314 26.392 92.1994 27.4857 92.8094 28.3563L94.5034 31.649L90.1934 40.0226L83.6774 21.2C83.3204 20.1671 82.2744 19.6506 81.3534 20.0508L81.1454 20.1419C80.2244 20.5432 79.7634 21.7155 80.1214 22.7484L87.9204 45.2816C88.2784 46.3135 89.3244 46.8311 90.2454 46.4298L90.4534 46.3397C91.0124 46.0956 91.5384 44.9569 91.5384 44.9569L96.4464 35.4225L101.528 45.7101C101.879 46.3921 102.589 46.697 103.24 46.5136C104.413 46.566 104.645 45.8117 104.871 45.2303L112.531 22.7379C112.889 21.705 112.428 20.5327 111.507 20.1315Z" fill="white"/>
<path d="M1.94465 92.8339H5.33465C5.68465 92.8339 5.97465 92.9189 6.20465 93.0889C6.44465 93.2489 6.60465 93.4689 6.68465 93.7489L10.3746 106.724C10.4646 107.044 10.5446 107.394 10.6146 107.774C10.6946 108.144 10.7696 108.539 10.8396 108.959C10.9196 108.539 11.0046 108.144 11.0946 107.774C11.1946 107.394 11.2996 107.044 11.4096 106.724L15.6696 93.7489C15.7496 93.5189 15.9046 93.3089 16.1346 93.1189C16.3746 92.9289 16.6646 92.8339 17.0046 92.8339H18.1896C18.5396 92.8339 18.8296 92.9189 19.0596 93.0889C19.2896 93.2489 19.4496 93.4689 19.5396 93.7489L23.7697 106.724C23.9896 107.364 24.1796 108.074 24.3397 108.854C24.4096 108.464 24.4796 108.089 24.5496 107.729C24.6296 107.369 24.7096 107.034 24.7896 106.724L28.4797 93.7489C28.5497 93.4989 28.7046 93.2839 28.9446 93.1039C29.1846 92.9239 29.4746 92.8339 29.8147 92.8339H32.9796L26.2446 114.524H22.5996L17.8596 99.7039C17.7996 99.5139 17.7346 99.3089 17.6646 99.0889C17.6046 98.8689 17.5446 98.6339 17.4846 98.3839C17.4246 98.6339 17.3596 98.8689 17.2896 99.0889C17.2296 99.3089 17.1696 99.5139 17.1096 99.7039L12.3246 114.524H8.67965L1.94465 92.8339ZM61.9667 103.679C61.9667 105.269 61.7017 106.744 61.1717 108.104C60.6417 109.454 59.8967 110.624 58.9367 111.614C57.9767 112.604 56.8217 113.379 55.4717 113.939C54.1217 114.489 52.6267 114.764 50.9867 114.764C49.3467 114.764 47.8467 114.489 46.4867 113.939C45.1367 113.379 43.9767 112.604 43.0067 111.614C42.0467 110.624 41.3017 109.454 40.7717 108.104C40.2417 106.744 39.9767 105.269 39.9767 103.679C39.9767 102.089 40.2417 100.619 40.7717 99.2689C41.3017 97.9089 42.0467 96.7339 43.0067 95.7439C43.9767 94.7539 45.1367 93.9839 46.4867 93.4339C47.8467 92.8739 49.3467 92.5939 50.9867 92.5939C52.6267 92.5939 54.1217 92.8739 55.4717 93.4339C56.8217 93.9939 57.9767 94.7689 58.9367 95.7589C59.8967 96.7389 60.6417 97.9089 61.1717 99.2689C61.7017 100.619 61.9667 102.089 61.9667 103.679ZM57.8267 103.679C57.8267 102.489 57.6667 101.424 57.3467 100.484C57.0367 99.5339 56.5867 98.7289 55.9967 98.0689C55.4067 97.4089 54.6867 96.9039 53.8367 96.5539C52.9967 96.2039 52.0467 96.0289 50.9867 96.0289C49.9267 96.0289 48.9717 96.2039 48.1217 96.5539C47.2717 96.9039 46.5467 97.4089 45.9467 98.0689C45.3567 98.7289 44.9017 99.5339 44.5817 100.484C44.2617 101.424 44.1017 102.489 44.1017 103.679C44.1017 104.869 44.2617 105.939 44.5817 106.889C44.9017 107.829 45.3567 108.629 45.9467 109.289C46.5467 109.939 47.2717 110.439 48.1217 110.789C48.9717 111.139 49.9267 111.314 50.9867 111.314C52.0467 111.314 52.9967 111.139 53.8367 110.789C54.6867 110.439 55.4067 109.939 55.9967 109.289C56.5867 108.629 57.0367 107.829 57.3467 106.889C57.6667 105.939 57.8267 104.869 57.8267 103.679ZM75.1266 106.049V114.524H71.0916V92.8339H77.7066C79.1866 92.8339 80.4516 92.9889 81.5016 93.2989C82.5616 93.5989 83.4266 94.0239 84.0966 94.5739C84.7766 95.1239 85.2716 95.7839 85.5816 96.5539C85.9016 97.3139 86.0616 98.1539 86.0616 99.0739C86.0616 99.8039 85.9516 100.494 85.7316 101.144C85.5216 101.794 85.2116 102.384 84.8016 102.914C84.4016 103.444 83.9016 103.909 83.3016 104.309C82.7116 104.709 82.0366 105.029 81.2766 105.269C81.7866 105.559 82.2266 105.974 82.5966 106.514L88.0266 114.524H84.3966C84.0466 114.524 83.7466 114.454 83.4966 114.314C83.2566 114.174 83.0516 113.974 82.8816 113.714L78.3216 106.769C78.1516 106.509 77.9616 106.324 77.7516 106.214C77.5516 106.104 77.2516 106.049 76.8516 106.049H75.1266ZM75.1266 103.154H77.6466C78.4066 103.154 79.0666 103.059 79.6266 102.869C80.1966 102.679 80.6616 102.419 81.0216 102.089C81.3916 101.749 81.6666 101.349 81.8466 100.889C82.0266 100.429 82.1166 99.9239 82.1166 99.3739C82.1166 98.2739 81.7516 97.4289 81.0216 96.8389C80.3016 96.2489 79.1966 95.9539 77.7066 95.9539H75.1266V103.154ZM100.586 101.924H101.531C101.911 101.924 102.226 101.874 102.476 101.774C102.726 101.664 102.941 101.494 103.121 101.264L109.106 93.6889C109.356 93.3689 109.616 93.1489 109.886 93.0289C110.166 92.8989 110.516 92.8339 110.936 92.8339H114.416L107.111 101.849C106.881 102.129 106.661 102.364 106.451 102.554C106.241 102.744 106.016 102.899 105.776 103.019C106.106 103.139 106.401 103.309 106.661 103.529C106.931 103.749 107.191 104.029 107.441 104.369L114.971 114.524H111.401C110.921 114.524 110.561 114.459 110.321 114.329C110.091 114.189 109.896 113.989 109.736 113.729L103.601 105.719C103.401 105.459 103.176 105.274 102.926 105.164C102.676 105.044 102.321 104.984 101.861 104.984H100.586V114.524H96.5506V92.8189H100.586V101.924ZM136.844 92.8339V96.0439H127.229V102.059H134.804V105.164H127.229V111.299H136.844V114.524H123.164V92.8339H136.844ZM150.167 111.194H158.852V114.524H146.132V92.8339H150.167V111.194ZM188.236 103.679C188.236 105.269 187.971 106.744 187.441 108.104C186.911 109.454 186.166 110.624 185.206 111.614C184.246 112.604 183.091 113.379 181.741 113.939C180.391 114.489 178.896 114.764 177.256 114.764C175.616 114.764 174.116 114.489 172.756 113.939C171.406 113.379 170.246 112.604 169.276 111.614C168.316 110.624 167.571 109.454 167.041 108.104C166.511 106.744 166.246 105.269 166.246 103.679C166.246 102.089 166.511 100.619 167.041 99.2689C167.571 97.9089 168.316 96.7339 169.276 95.7439C170.246 94.7539 171.406 93.9839 172.756 93.4339C174.116 92.8739 175.616 92.5939 177.256 92.5939C178.896 92.5939 180.391 92.8739 181.741 93.4339C183.091 93.9939 184.246 94.7689 185.206 95.7589C186.166 96.7389 186.911 97.9089 187.441 99.2689C187.971 100.619 188.236 102.089 188.236 103.679ZM184.096 103.679C184.096 102.489 183.936 101.424 183.616 100.484C183.306 99.5339 182.856 98.7289 182.266 98.0689C181.676 97.4089 180.956 96.9039 180.106 96.5539C179.266 96.2039 178.316 96.0289 177.256 96.0289C176.196 96.0289 175.241 96.2039 174.391 96.5539C173.541 96.9039 172.816 97.4089 172.216 98.0689C171.626 98.7289 171.171 99.5339 170.851 100.484C170.531 101.424 170.371 102.489 170.371 103.679C170.371 104.869 170.531 105.939 170.851 106.889C171.171 107.829 171.626 108.629 172.216 109.289C172.816 109.939 173.541 110.439 174.391 110.789C175.241 111.139 176.196 111.314 177.256 111.314C178.316 111.314 179.266 111.139 180.106 110.789C180.956 110.439 181.676 109.939 182.266 109.289C182.856 108.629 183.306 107.829 183.616 106.889C183.936 105.939 184.096 104.869 184.096 103.679Z" fill="#2E5BEC"/>
</svg>
